<?xml version="1.0" standalone="no"?>
<!DOCTYPE svg PUBLIC "-//W3C//DTD SVG 20010904//EN"
 "http://www.w3.org/TR/2001/REC-SVG-20010904/DTD/svg10.dtd">
<svg version="1.0" xmlns="http://www.w3.org/2000/svg"
 width="5184.000000pt" height="3456.000000pt" viewBox="0 0 5184.000000 3456.000000"
 preserveAspectRatio="xMidYMid meet">

<g transform="translate(0.000000,3456.000000) scale(0.100000,-0.100000)"
fill="#000000" stroke="none">
<path d="M0 17280 l0 -17280 25920 0 25920 0 0 17280 0 17280 -25920 0 -25920
0 0 -17280z m29455 14720 c-10 -17 -14 -51 -6 -45 5 3 11 -2 14 -10 4 -9 1
-12 -9 -8 -9 3 -14 -1 -12 -13 0 -11 0 -223 0 -471 l-2 -453 -1840 0 -1840 0
0 -5340 0 -5340 -1725 0 -1725 0 0 5845 0 5845 3576 0 c2358 0 3573 -3 3569
-10z m290 0 c-3 -5 -12 -10 -18 -10 -7 0 -6 4 3 10 19 12 23 12 15 0z m100 0
c8 -13 -5 -13 -25 0 -13 8 -13 10 2 10 9 0 20 -4 23 -10z m55 0 c0 -5 -2 -10
-4 -10 -3 0 -8 5 -11 10 -3 6 -1 10 4 10 6 0 11 -4 11 -10z m13710 -5835 l0
-5845 -1565 0 -1565 0 0 5340 0 5340 -1840 0 -1840 0 0 505 0 505 3405 0 3405
0 0 -5845z m-14120 5825 c0 -5 -5 -10 -11 -10 -5 0 -7 5 -4 10 3 6 8 10 11 10
2 0 4 -4 4 -10z m40 0 c0 -5 -7 -10 -16 -10 -8 0 -12 5 -9 10 3 6 10 10 16 10
5 0 9 -4 9 -10z m46 1 c8 7 17 9 21 5 8 -8 3 -12 -24 -20 -18 -6 -23 -4 -22
11 0 11 3 13 6 5 4 -10 8 -10 19 -1z m344 -16 c-7 -9 -15 -13 -19 -10 -3 3 1
10 9 15 21 14 24 12 10 -5z m-240 -19 c-7 -7 -14 -6 -21 1 -9 9 -7 12 9 10 14
-1 18 -5 12 -11z m200 9 c0 -7 -30 -13 -34 -7 -3 4 4 9 15 9 10 1 19 0 19 -2z
m-380 -9 c0 -3 -4 -8 -10 -11 -5 -3 -10 -1 -10 4 0 6 5 11 10 11 6 0 10 -2 10
-4z m42 -26 c-6 -15 -11 -19 -16 -12 -4 7 -1 18 6 26 17 19 20 14 10 -14z m39
-17 c-12 -20 -14 -14 -5 12 4 9 9 14 11 11 3 -2 0 -13 -6 -23z m79 -3 c0 -5
-5 -10 -11 -10 -5 0 -7 5 -4 10 3 6 8 10 11 10 2 0 4 -4 4 -10z m-2851 -2579
c9 -6 24 -5 39 0 22 8 23 8 12 -6 -8 -9 -8 -15 -2 -15 6 0 14 5 17 10 10 16
25 12 25 -7 0 -15 2 -16 9 -3 6 8 7 18 5 22 -3 4 2 5 11 1 12 -4 13 -8 5 -13
-20 -12 4 -20 49 -16 30 2 41 0 41 -11 0 -8 4 -12 9 -8 5 3 12 1 16 -5 3 -5
-2 -10 -12 -11 -10 0 -13 -3 -5 -6 6 -2 12 -11 12 -19 0 -8 5 -14 10 -14 6 0
10 5 10 11 0 5 4 8 10 4 5 -3 7 -12 4 -20 -4 -8 -11 -12 -16 -9 -6 4 -8 -2 -3
-15 8 -27 -2 -27 -27 2 l-20 22 16 -27 c13 -23 14 -28 0 -39 -8 -6 -17 -9 -21
-6 -3 4 -11 0 -17 -8 -6 -7 -23 -17 -38 -21 -22 -5 -28 -3 -28 10 0 9 -5 16
-11 16 -6 0 -9 -6 -6 -14 7 -17 -17 -24 -67 -21 -20 2 -36 -1 -36 -6 0 -5 -8
-9 -17 -9 -17 1 -17 2 0 14 20 16 9 30 -13 16 -8 -5 -21 -5 -31 1 -10 5 -24 7
-31 6 -7 -2 -10 -2 -6 0 4 3 2 10 -5 18 -7 7 -15 11 -18 9 -10 -6 3 50 18 72
7 12 11 29 7 38 -4 10 -1 16 9 16 8 0 18 7 21 16 5 13 9 14 20 5 11 -10 16 -8
21 8 7 23 13 25 34 12z m171 0 c0 -6 -4 -13 -10 -16 -5 -3 -10 1 -10 9 0 9 5
16 10 16 6 0 10 -4 10 -9z m660 -137 c0 -20 33 -27 46 -10 14 19 25 21 23 4
-3 -29 2 -38 22 -38 25 0 53 -26 43 -41 -3 -6 0 -15 7 -20 11 -6 11 -11 1 -21
-9 -9 -12 -9 -12 4 0 9 -5 20 -12 24 -8 5 -9 0 -6 -14 4 -12 3 -22 -2 -22 -4
0 -10 -7 -14 -15 -4 -12 -2 -13 12 -6 22 12 48 -2 37 -19 -6 -9 -9 -9 -16 1
-7 11 -9 10 -9 -4 0 -16 -3 -16 -34 -3 -30 12 -34 13 -29 0 3 -8 0 -14 -6 -14
-6 0 -11 5 -11 11 0 7 -7 8 -17 4 -23 -9 -65 -14 -58 -7 3 3 -5 12 -17 19 -13
7 -17 12 -10 13 6 0 12 5 12 11 0 6 -9 8 -20 4 -11 -4 -20 -2 -20 4 0 6 5 11
10 11 7 0 7 6 1 19 -6 10 -8 21 -5 24 3 3 -4 8 -15 12 -12 3 -19 11 -15 16 4
6 10 7 17 0 9 -7 12 -1 12 22 0 26 5 33 25 38 38 9 60 6 60 -7z m35 -4 c3 -5
1 -10 -4 -10 -6 0 -11 5 -11 10 0 6 2 10 4 10 3 0 8 -4 11 -10z m1679 -213 c3
4 6 1 6 -5 0 -12 -41 -54 -81 -85 -23 -16 -22 -16 19 -1 24 9 45 15 47 13 6
-7 -68 -86 -91 -98 -18 -8 -33 -5 -82 20 -65 32 -96 59 -69 59 8 0 18 -6 20
-12 3 -7 6 -1 6 14 1 29 42 65 60 53 7 -4 8 1 4 11 -5 13 -3 16 10 11 9 -3 17
-2 17 4 0 6 5 7 10 4 6 -3 10 -1 10 4 0 15 36 14 52 -2 7 -8 19 -12 26 -9 10
3 8 8 -5 18 -16 13 -15 13 8 5 15 -5 30 -7 33 -4z m2346 -1632 c0 -8 -7 -15
-16 -15 -14 0 -14 3 -4 15 7 8 14 15 16 15 2 0 4 -7 4 -15z m-130 -14 c0 -11
-31 -24 -38 -16 -3 3 0 5 7 5 7 0 9 5 6 10 -3 6 1 10 9 10 9 0 16 -4 16 -9z
m-79 -41 c5 0 9 6 9 13 0 6 12 -1 26 -17 32 -36 87 -41 112 -9 18 22 33 28 90
38 23 4 34 1 38 -10 3 -8 10 -13 14 -10 4 3 10 -1 13 -9 4 -9 14 -12 26 -9 29
7 81 -18 87 -44 3 -12 15 -23 27 -25 12 -2 21 -9 20 -15 -4 -16 44 -63 62 -63
19 0 19 -9 -2 -32 -9 -10 -11 -18 -5 -18 6 0 18 -7 27 -16 9 -9 19 -14 22 -10
4 3 1 12 -5 18 -18 18 -14 28 11 28 15 0 18 -3 9 -8 -20 -13 -3 -40 33 -52 18
-6 39 -18 45 -26 7 -7 28 -14 47 -14 26 0 36 -5 40 -20 3 -11 9 -20 14 -20 5
0 9 -8 9 -17 0 -14 -2 -15 -9 -4 -6 9 -10 10 -16 2 -5 -9 -11 -9 -23 1 -13 11
-14 11 -10 -2 3 -8 -1 -20 -9 -25 -10 -8 -12 -17 -5 -35 9 -24 9 -24 16 -3 4
11 21 27 39 34 18 7 38 19 45 26 23 22 35 15 29 -17 -5 -22 -3 -30 8 -30 8 0
15 7 15 15 0 8 8 15 18 15 33 0 41 -13 32 -58 -7 -40 -6 -42 14 -36 11 3 29
16 39 28 13 15 20 17 24 8 5 -14 45 22 56 52 7 18 32 21 42 6 3 -5 17 -10 31
-10 13 0 24 -4 24 -10 0 -5 6 -7 14 -4 8 3 17 0 21 -6 5 -8 17 -1 36 21 18 21
29 28 29 19 0 -10 6 -8 19 9 l18 23 13 -32 c7 -18 13 -38 13 -46 0 -19 4 -18
32 12 26 28 45 25 45 -9 0 -15 -3 -18 -9 -9 -6 10 -10 10 -20 -2 -15 -17 -5
-40 12 -30 8 4 7 2 -1 -7 -11 -12 -14 -12 -23 1 -8 13 -11 12 -24 -4 -8 -10
-12 -23 -9 -27 8 -13 -19 -45 -36 -43 -36 3 -41 5 -35 14 10 17 -14 50 -32 43
-14 -5 -13 -8 5 -14 24 -9 30 -29 8 -29 -7 0 -16 -9 -19 -20 -3 -14 -14 -20
-34 -21 -21 -1 -23 -3 -8 -6 11 -3 25 -10 32 -15 7 -5 16 -7 22 -4 5 3 12 0
15 -6 3 -7 3 2 0 19 -5 28 -3 32 11 27 9 -4 14 -9 11 -12 -3 -2 0 -14 6 -25 9
-17 7 -24 -12 -39 -21 -17 -16 -23 18 -19 8 1 4 -7 -7 -18 -12 -12 -21 -25
-21 -30 0 -11 -39 -3 -58 12 -9 7 -11 6 -6 -6 9 -24 51 -48 71 -40 17 6 17 6
1 -10 -9 -9 -21 -17 -27 -17 -6 0 -11 -7 -11 -15 0 -21 17 -19 30 5 14 25 34
26 27 1 -2 -10 -1 -25 4 -32 8 -12 10 -12 18 0 5 7 14 10 20 7 16 -10 14 -26
-4 -26 -8 0 -15 -9 -15 -20 0 -20 11 -26 24 -12 8 7 13 8 42 11 9 0 14 7 11
14 -3 8 1 14 9 14 9 0 13 -7 9 -16 -3 -11 -1 -11 9 3 9 10 22 16 30 13 9 -4
18 -2 21 3 4 6 11 10 18 10 8 0 8 -3 0 -11 -6 -6 -9 -17 -7 -24 3 -7 -6 -15
-24 -18 -16 -3 -32 -13 -35 -22 -5 -12 -1 -14 20 -9 24 6 25 5 21 -24 -4 -26
-2 -29 13 -22 9 5 19 7 21 4 3 -2 3 6 1 20 -5 22 -2 25 33 28 33 2 39 7 40 26
2 27 10 37 19 23 3 -6 1 -11 -4 -11 -7 0 -7 -7 1 -20 7 -11 18 -20 25 -20 6 0
14 -4 17 -9 4 -5 -9 -9 -26 -8 -34 2 -68 -18 -68 -40 0 -6 -10 -19 -22 -27
l-22 -16 27 0 c15 0 30 -6 33 -14 7 -17 44 -9 44 10 0 8 -9 13 -22 11 -31 -3
-30 27 0 31 13 2 26 10 28 17 8 20 33 7 27 -15 -3 -12 -11 -17 -21 -13 -15 4
-15 3 -2 -6 11 -8 18 -7 27 5 6 9 16 13 22 9 6 -3 11 1 11 10 0 8 7 18 15 21
8 4 13 9 11 13 -2 3 7 6 20 6 25 0 32 -11 12 -18 -24 -7 -15 -70 14 -102 16
-16 28 -34 28 -39 0 -5 8 -15 18 -22 16 -13 16 -14 -5 -20 -13 -3 -23 -11 -23
-18 0 -6 -9 -17 -20 -24 -11 -7 -20 -21 -20 -31 0 -11 -6 -22 -12 -25 -7 -3
-3 -3 9 -1 28 8 35 -6 19 -37 -12 -23 -12 -25 5 -21 11 3 19 0 19 -6 0 -6 -4
-11 -9 -11 -5 0 -14 -12 -19 -27 -6 -16 -18 -37 -27 -48 -9 -11 -14 -14 -10
-7 4 7 0 12 -9 12 -10 0 -15 -8 -13 -22 1 -15 -3 -22 -11 -20 -7 1 -20 -4 -28
-12 -8 -9 -22 -12 -31 -9 -11 4 -14 3 -9 -5 5 -8 2 -10 -8 -6 -21 8 -20 17 4
32 12 7 18 17 14 23 -3 6 -17 -3 -33 -20 -38 -42 -51 -39 -51 10 0 32 -3 40
-14 36 -8 -3 -19 0 -25 7 -9 11 -4 12 24 9 30 -3 37 0 47 22 9 20 9 31 0 45
-8 13 -9 27 -2 45 6 16 6 25 0 25 -6 0 -10 -7 -10 -16 0 -8 -7 -22 -15 -31
-13 -13 -18 -13 -33 -1 -25 19 -31 31 -24 43 3 5 -1 4 -10 -3 -17 -14 -35 -1
-23 17 8 14 -15 25 -27 13 -8 -8 -6 -16 6 -28 20 -20 18 -22 -24 -34 -30 -9
-32 -8 -26 14 3 13 9 31 12 40 4 10 1 16 -9 16 -20 0 -31 31 -15 43 9 6 7 7
-6 3 -14 -5 -17 -2 -12 10 4 11 2 15 -8 11 -7 -3 -20 0 -27 6 -8 8 -8 5 1 -7
12 -15 12 -20 3 -23 -7 -3 -13 -9 -13 -14 0 -4 6 -6 14 -3 19 7 27 -42 9 -57
-11 -9 -17 -8 -28 7 -13 17 -14 18 -15 2 0 -10 4 -18 8 -18 4 0 8 -8 9 -17 1
-14 -7 -18 -32 -19 -19 0 -32 3 -29 7 2 4 -1 11 -7 14 -6 4 -13 -2 -16 -14 -3
-11 -10 -18 -16 -14 -6 4 -8 -3 -4 -18 6 -22 2 -26 -35 -37 -48 -15 -56 -11
-34 20 9 12 16 18 16 13 1 -12 29 36 30 50 0 5 -5 4 -12 -3 -17 -17 -47 -15
-54 3 -5 12 -8 12 -20 0 -8 -7 -13 -22 -12 -32 3 -40 -3 -63 -16 -63 -8 0 -17
6 -19 13 -4 8 -6 7 -6 -3 -1 -16 -40 -56 -42 -42 0 4 -2 18 -3 32 -2 14 3 30
11 35 12 9 11 11 -4 12 -10 1 -23 2 -28 3 -32 7 -46 -1 -40 -20 10 -31 -21
-37 -50 -10 l-23 22 -4 -24 c-2 -16 -10 -24 -28 -25 -25 -3 -25 -3 -2 7 32 14
27 20 -8 10 -40 -11 -50 -19 -50 -36 0 -12 -4 -12 -20 -4 -14 8 -20 8 -20 0 0
-7 -12 -9 -32 -6 -40 6 -111 -11 -103 -25 4 -5 11 -7 16 -4 5 4 9 2 9 -3 0
-14 -28 -23 -35 -12 -3 5 -13 6 -22 3 -10 -4 -14 -2 -9 5 6 10 -8 10 -56 3 -5
0 -7 -7 -5 -13 1 -7 -4 -12 -10 -11 -7 2 -13 -1 -13 -5 0 -5 -6 -9 -12 -9 -7
0 -22 -3 -33 -6 -14 -5 -30 2 -54 22 -28 24 -37 27 -52 18 -10 -6 -16 -13 -14
-16 3 -2 11 2 20 9 12 10 15 10 15 -3 0 -18 -49 -32 -63 -18 -8 8 -7 11 1 11
7 0 12 7 12 17 0 12 -6 9 -24 -11 -22 -27 -23 -27 -29 -7 -5 21 -27 30 -27 11
0 -5 -7 -10 -15 -10 -8 0 -15 4 -15 9 0 5 -11 11 -24 13 -25 5 -56 -12 -56
-31 0 -16 -11 -14 -25 6 -11 14 -17 15 -39 5 -27 -12 -56 -7 -56 10 0 7 -4 7
-12 1 -7 -5 -23 -10 -36 -11 -18 -1 -22 3 -17 19 7 21 -5 25 -23 7 -7 -7 -12
-8 -12 -4 0 5 -7 2 -16 -5 -15 -12 -16 -11 -9 10 5 16 4 21 -4 17 -6 -4 -11
-2 -11 3 0 6 4 11 9 11 5 0 7 9 4 21 -4 14 -9 17 -16 10 -7 -7 -15 -7 -24 1
-18 15 -29 2 -14 -16 10 -12 6 -14 -24 -11 -37 4 -43 -3 -23 -23 9 -9 8 -12
-5 -12 -30 0 -33 31 -5 52 18 12 24 25 21 38 -5 17 -2 18 28 10 41 -12 39 -12
39 -2 0 5 -10 14 -22 20 -13 6 -17 11 -9 11 8 1 23 -7 34 -16 18 -17 20 -16
47 17 16 19 26 38 24 41 -2 4 5 5 16 2 22 -6 26 7 8 25 -9 9 -8 12 6 12 13 0
16 5 11 20 -3 11 -2 20 3 20 6 0 12 -5 14 -12 3 -9 6 -9 12 1 5 8 1 14 -12 18
-20 5 -38 56 -26 74 3 5 -2 9 -10 9 -11 0 -16 9 -16 30 0 17 4 30 9 30 5 0 12
7 15 16 3 8 2 13 -3 10 -14 -9 -23 25 -10 40 7 8 21 11 35 8 27 -7 34 13 9 22
-19 8 -19 25 1 50 8 10 13 13 9 7 -3 -7 -2 -13 3 -13 14 0 33 26 25 33 -3 4 1
7 9 7 17 0 31 26 22 41 -3 5 -12 9 -20 9 -8 0 -14 7 -14 15 0 8 -7 15 -16 15
-9 0 -12 -5 -8 -12 4 -7 3 -8 -4 -4 -9 5 -9 13 -2 26 19 36 13 52 -19 47 -22
-4 -28 -2 -24 9 3 8 9 11 14 8 5 -3 9 1 9 8 0 10 2 10 9 -1 7 -10 12 -8 25 10
9 13 16 18 16 12 0 -7 7 -10 15 -7 25 10 17 29 -17 43 -18 8 -37 15 -43 15 -5
1 -16 5 -22 9 -8 5 -13 3 -13 -3 0 -6 -4 -9 -9 -6 -5 4 -12 0 -14 -6 -3 -7 -6
-3 -6 9 -1 12 -5 24 -10 27 -12 8 -10 79 3 88 6 5 1 8 -11 8 -25 0 -41 -19
-24 -30 9 -5 8 -10 -4 -20 -9 -7 -14 -19 -11 -26 3 -7 -1 -15 -9 -18 -12 -4
-25 14 -25 37 0 4 -6 20 -15 36 -13 26 -13 30 2 42 14 12 16 12 11 -1 -4 -12
0 -16 16 -16 18 0 23 6 23 27 0 20 -4 26 -16 22 -12 -3 -12 -2 2 7 9 6 17 19
17 29 0 11 7 21 15 24 11 5 12 1 5 -17 -7 -21 -6 -23 11 -19 11 3 18 11 15 19
-6 15 31 60 41 50 4 -3 1 -12 -5 -18 -18 -18 -14 -45 8 -51 14 -4 23 3 34 24
16 33 11 37 -16 12 -17 -15 -18 -15 -7 15 10 30 29 44 29 22 0 -18 22 -10 27
10 4 13 11 19 22 16 28 -9 45 10 43 48 -1 19 2 37 8 41 8 5 8 11 0 20 -7 8 -9
19 -5 25 10 16 -33 53 -53 46 -15 -5 -15 -5 -2 6 9 7 14 21 12 32 -2 11 0 16
6 12 6 -3 14 4 18 16 l8 23 4 -22 c2 -13 8 -23 13 -23z m-141 -44 c0 -3 -4 -8
-10 -11 -5 -3 -10 -1 -10 4 0 6 5 11 10 11 6 0 10 -2 10 -4z m20 -61 c-7 -8
-16 -12 -21 -9 -13 8 -1 24 18 24 13 0 13 -3 3 -15z m-31 -41 c2 -2 -2 -11
-10 -20 -12 -14 -14 -14 -26 2 -19 26 -16 36 10 28 12 -3 24 -8 26 -10z m-49
-13 c0 -5 8 -18 18 -27 16 -17 16 -18 -2 -11 -13 5 -17 3 -13 -7 7 -17 -22
-16 -40 1 -14 13 -17 24 -5 22 21 -4 31 3 26 16 -4 8 -1 15 5 15 6 0 11 -4 11
-9z m1500 -171 c0 -5 -5 -10 -11 -10 -5 0 -7 5 -4 10 3 6 8 10 11 10 2 0 4 -4
4 -10z m34 -25 c-17 -14 -31 -19 -33 -12 -5 14 38 49 51 41 6 -4 -3 -17 -18
-29z m-179 -5 c-3 -5 -10 -10 -16 -10 -5 0 -9 5 -9 10 0 6 7 10 16 10 8 0 12
-4 9 -10z m-146 -26 c2 -2 2 -7 -2 -10 -10 -10 -58 6 -52 17 6 8 42 4 54 -7z
m-1299 -38 c0 -11 -19 -15 -25 -6 -3 5 1 10 9 10 9 0 16 -2 16 -4z m1720 -6
c0 -5 -4 -10 -10 -10 -5 0 -10 5 -10 10 0 6 5 10 10 10 6 0 10 -4 10 -10z
m-1630 -85 c0 -8 -7 -15 -16 -15 -14 0 -14 3 -4 15 7 8 14 15 16 15 2 0 4 -7
4 -15z m-96 -96 c11 1 16 -2 12 -8 -4 -6 -2 -11 3 -11 6 0 11 7 11 15 0 21 31
15 48 -8 8 -10 11 -23 9 -30 -3 -7 -6 -5 -6 6 -1 26 -47 22 -73 -8 -22 -25
-38 -25 -38 1 0 8 5 12 10 9 6 -3 10 -2 10 3 0 5 -9 12 -21 15 -12 3 -18 10
-14 16 3 6 12 8 18 4 7 -4 20 -6 31 -4z m1686 -19 c0 -5 -5 -10 -11 -10 -5 0
-7 5 -4 10 3 6 8 10 11 10 2 0 4 -4 4 -10z m-1743 -15 c-4 -8 -2 -17 3 -20 6
-4 10 -12 10 -18 0 -8 -3 -8 -9 1 -4 8 -11 13 -15 13 -24 -3 -27 1 -10 18 23
24 28 25 21 6z m188 6 c3 -5 2 -12 -3 -15 -5 -3 -9 1 -9 9 0 17 3 19 12 6z
m1480 -21 c8 -13 -5 -13 -25 0 -13 8 -13 10 2 10 9 0 20 -4 23 -10z m-25 -30
c0 -5 -2 -10 -4 -10 -3 0 -8 5 -11 10 -3 6 -1 10 4 10 6 0 11 -4 11 -10z m270
-5 c0 -7 -30 -13 -34 -7 -3 4 4 9 15 9 10 1 19 0 19 -2z m-1951 -19 c7 -8 8
-17 3 -20 -6 -3 -12 3 -15 14 -6 24 -4 25 12 6z m1681 -16 c0 -5 -7 -10 -16
-10 -8 0 -12 5 -9 10 3 6 10 10 16 10 5 0 9 -4 9 -10z m156 -5 c-11 -8 -22
-12 -25 -9 -6 6 19 24 34 24 6 -1 1 -7 -9 -15z m-56 -5 c0 -5 -5 -10 -11 -10
-5 0 -7 5 -4 10 3 6 8 10 11 10 2 0 4 -4 4 -10z m-1667 -7 c-7 -3 -13 -16 -13
-30 0 -31 -12 -23 -16 10 -2 17 3 23 19 24 12 0 16 -1 10 -4z m1794 -40 c-9
-9 -20 -14 -24 -10 -3 4 2 14 13 21 25 19 33 10 11 -11z m-1845 -15 c-7 -7
-12 -8 -12 -2 0 14 12 26 19 19 2 -3 -1 -11 -7 -17z m93 -8 c3 -5 1 -10 -4
-10 -6 0 -11 5 -11 10 0 6 2 10 4 10 3 0 8 -4 11 -10z m-88 -32 c-3 -8 -6 -5
-6 6 -1 11 2 17 5 13 3 -3 4 -12 1 -19z m63 12 c0 -5 -7 -7 -15 -4 -8 4 -15 8
-15 10 0 2 7 4 15 4 8 0 15 -4 15 -10z m1940 -4 c0 -8 -7 -16 -15 -20 -13 -4
-14 -2 -5 14 13 23 20 26 20 6z m44 -41 c-4 -8 -8 -15 -10 -15 -2 0 -4 7 -4
15 0 8 4 15 10 15 5 0 7 -7 4 -15z m-1950 -30 c11 -8 15 -15 9 -15 -6 0 -9 -8
-6 -19 3 -10 0 -22 -6 -25 -6 -4 -11 -2 -11 4 0 6 -5 8 -12 4 -7 -5 -9 -2 -6
7 22 53 22 52 0 44 -13 -4 -22 -2 -22 4 0 16 32 13 54 -4z m46 -14 c0 -6 -4
-13 -10 -16 -5 -3 -10 1 -10 9 0 9 5 16 10 16 6 0 10 -4 10 -9z m-185 -11 c3
-5 -1 -10 -10 -10 -9 0 -13 5 -10 10 3 6 8 10 10 10 2 0 7 -4 10 -10z m2300
-10 c3 -5 1 -10 -4 -10 -6 0 -11 5 -11 10 0 6 2 10 4 10 3 0 8 -4 11 -10z m32
-12 c-3 -8 -6 -5 -6 6 -1 11 2 17 5 13 3 -3 4 -12 1 -19z m-142 -9 c7 -8 -7
-49 -17 -49 -5 0 -6 5 -2 12 4 7 3 8 -5 4 -6 -4 -9 -12 -5 -17 7 -12 -15 -41
-26 -34 -5 3 -5 18 0 34 6 22 5 31 -6 35 -26 10 -14 22 21 21 19 -1 37 -4 40
-6z m-94 -16 c13 -16 12 -17 -3 -4 -17 13 -22 21 -14 21 2 0 10 -8 17 -17z
m146 -20 c-3 -3 -10 -2 -16 2 -7 4 -7 10 2 20 10 11 13 11 15 -2 2 -8 1 -17
-1 -20z m58 27 c3 -6 -1 -7 -12 -4 -10 3 -4 -3 12 -12 24 -14 26 -19 13 -22
-10 -2 -18 -10 -18 -18 0 -9 5 -12 11 -8 8 5 8 1 0 -14 -8 -16 -7 -21 4 -26
20 -7 19 -45 -1 -53 -8 -3 -20 -1 -27 6 -8 8 -6 11 7 11 10 0 16 5 14 12 -7
21 -26 20 -33 -2 -4 -12 -12 -20 -18 -17 -7 2 -20 -5 -30 -15 -15 -16 -15 -19
-2 -24 8 -3 14 -16 13 -29 -3 -29 -18 -22 -18 8 0 16 -3 18 -12 9 -17 -17 -33
-15 -19 2 9 11 5 13 -26 12 -44 -1 -55 -12 -46 -43 4 -18 1 -23 -15 -23 -26 0
-37 17 -22 35 8 10 8 19 0 34 -11 21 -9 23 20 25 8 1 15 6 15 13 0 25 16 25
36 0 25 -33 32 -33 64 -1 14 14 29 23 33 20 4 -2 8 4 8 14 0 11 -9 20 -23 23
-27 5 -36 -5 -37 -41 -1 -14 -7 -27 -13 -30 -12 -3 -15 4 -12 24 0 4 -5 10
-12 15 -19 11 37 62 61 54 31 -10 50 5 45 33 -6 33 25 57 40 32z m-2210 -10
c-8 -13 8 -13 21 0 7 7 16 6 29 -4 17 -12 14 -13 -21 -11 -21 1 -40 3 -42 4
-5 2 8 21 14 21 3 0 2 -4 -1 -10z m-60 -20 c3 -6 -1 -7 -9 -4 -18 7 -21 14 -7
14 6 0 13 -4 16 -10z m10 -58 c-3 -3 -11 0 -18 7 -9 10 -8 11 6 5 10 -3 15 -9
12 -12z m35 -52 c0 -5 -2 -10 -4 -10 -3 0 -8 5 -11 10 -3 6 -1 10 4 10 6 0 11
-4 11 -10z m2377 -22 c-3 -8 -6 -5 -6 6 -1 11 2 17 5 13 3 -3 4 -12 1 -19z
m-77 -31 c0 -6 -9 -1 -20 11 -11 12 -20 24 -20 28 0 4 9 -1 20 -11 11 -10 20
-23 20 -28z m-45 13 c4 -6 3 -10 -2 -9 -20 4 -33 -2 -33 -15 0 -8 -6 -16 -14
-19 -10 -4 -13 2 -12 18 0 13 3 22 6 20 3 -2 12 0 20 6 19 11 27 11 35 -1z
m-168 -32 c-3 -8 -6 -5 -6 6 -1 11 2 17 5 13 3 -3 4 -12 1 -19z m-2007 -29 c0
-6 -4 -7 -10 -4 -5 3 -10 11 -10 16 0 6 5 7 10 4 6 -3 10 -11 10 -16z m1620 5
c0 -8 -5 -12 -10 -9 -6 4 -8 11 -5 16 9 14 15 11 15 -7z m25 -14 c3 -5 1 -10
-4 -10 -6 0 -11 5 -11 10 0 6 2 10 4 10 3 0 8 -4 11 -10z m50 -22 c-4 -34 -5
-35 -16 -15 -10 17 -5 37 10 37 5 0 7 -10 6 -22z m-305 -9 c0 -5 -4 -9 -10 -9
-5 0 -10 7 -10 16 0 8 5 12 10 9 6 -3 10 -10 10 -16z m-1537 -49 c-21 -55 -19
-53 -33 -45 -8 5 -5 12 7 22 10 8 12 12 6 8 -7 -3 -13 -1 -13 6 0 8 -4 8 -15
-1 -8 -7 -12 -16 -9 -21 3 -5 0 -9 -5 -9 -6 0 -11 7 -11 15 0 8 4 15 9 15 12
0 9 33 -4 42 -5 4 -6 10 -2 15 5 4 16 -3 26 -15 16 -21 19 -22 31 -8 11 14 10
16 -4 10 -9 -3 -16 -1 -16 4 0 12 32 21 42 12 5 -3 0 -26 -9 -50z m1272 50
c-3 -5 -13 -10 -21 -10 -8 0 -12 5 -9 10 3 6 13 10 21 10 8 0 12 -4 9 -10z
m-25 -35 c-10 -12 -10 -18 0 -30 11 -13 10 -14 -4 -9 -25 10 -20 54 7 54 5 0
4 -7 -3 -15z m-1350 -25 c0 -5 -2 -10 -4 -10 -3 0 -8 5 -11 10 -3 6 -1 10 4
10 6 0 11 -4 11 -10z m1550 -4 c0 -3 -4 -8 -10 -11 -5 -3 -10 -1 -10 4 0 6 5
11 10 11 6 0 10 -2 10 -4z m-1590 -48 c0 -13 -23 -5 -28 10 -2 7 2 10 12 6 9
-3 16 -11 16 -16z m1125 12 c3 -5 1 -10 -4 -10 -6 0 -11 5 -11 10 0 6 2 10 4
10 3 0 8 -4 11 -10z m-944 -22 c0 -10 2 -10 6 0 2 6 9 10 14 6 17 -10 9 -23
-23 -40 -21 -10 -28 -11 -20 -3 18 19 15 29 -9 29 -11 0 -17 5 -14 10 9 14 45
12 46 -2z m789 8 c0 -3 -4 -8 -10 -11 -5 -3 -10 -1 -10 4 0 6 5 11 10 11 6 0
10 -2 10 -4z m877 -12 c-3 -3 -12 -4 -19 -1 -8 3 -5 6 6 6 11 1 17 -2 13 -5z
m-1367 -18 c0 -2 -7 -6 -15 -10 -8 -3 -15 -1 -15 4 0 6 7 10 15 10 8 0 15 -2
15 -4z m175 -6 c3 -5 1 -10 -4 -10 -6 0 -11 5 -11 10 0 6 2 10 4 10 3 0 8 -4
11 -10z m-115 -10 c0 -5 -5 -10 -11 -10 -5 0 -7 5 -4 10 3 6 8 10 11 10 2 0 4
-4 4 -10z m1500 -14 c0 -3 -4 -8 -10 -11 -5 -3 -10 -1 -10 4 0 6 5 11 10 11 6
0 10 -2 10 -4z m-1658 -509 c-11 -15 9 -55 26 -49 22 7 13 -27 -10 -39 -30
-16 -90 -12 -101 7 -6 11 -13 12 -28 4 -11 -6 -17 -15 -14 -20 3 -6 1 -18 -4
-27 -8 -14 -11 -15 -11 -3 -1 8 -3 25 -6 38 -3 15 1 22 12 22 9 0 14 6 12 12
-3 7 -15 13 -28 13 -13 0 -25 6 -27 13 -3 7 1 10 11 6 9 -3 23 -1 31 6 8 6 19
9 25 5 6 -4 10 -3 9 2 -3 16 2 18 57 20 42 1 53 -1 46 -10z m53 -17 c3 -5 -3
-10 -14 -10 -12 0 -21 5 -21 10 0 6 6 10 14 10 8 0 18 -4 21 -10z m-260 -39
c-3 -6 -11 -8 -17 -5 -6 4 -5 9 3 15 16 10 23 4 14 -10z m115 -46 c0 -8 -4
-15 -10 -15 -5 0 -10 7 -10 15 0 8 5 15 10 15 6 0 10 -7 10 -15z m17 -31 c-3
-3 -12 -4 -19 -1 -8 3 -5 6 6 6 11 1 17 -2 13 -5z m1529 -216 c23 2 39 -4 53
-20 14 -14 21 -17 21 -8 0 11 3 11 12 2 9 -9 9 -15 0 -24 -14 -14 -16 -48 -4
-48 5 0 9 -7 9 -15 0 -8 -4 -12 -9 -9 -17 11 -7 -10 22 -43 36 -40 38 -53 8
-45 -21 5 -22 4 -9 -12 8 -9 11 -19 8 -23 -4 -3 -2 -12 3 -19 6 -6 10 -16 9
-20 -5 -31 2 -56 15 -51 8 3 19 0 25 -7 14 -16 2 -29 -14 -16 -9 8 -14 4 -18
-12 -8 -32 7 -94 22 -90 14 3 -2 -32 -19 -43 -7 -4 -7 -13 0 -25 5 -10 10 -30
10 -44 0 -14 5 -26 10 -26 6 0 10 -5 10 -12 0 -6 -8 -4 -19 6 -12 11 -21 14
-26 7 -3 -6 1 -11 9 -11 16 0 19 -9 17 -40 0 -10 1 -11 5 -2 9 20 23 14 17 -8
-3 -11 -8 -18 -12 -16 -14 9 -9 -33 5 -45 16 -13 19 -45 4 -54 -15 -9 -12 -36
6 -49 18 -14 9 -46 -13 -46 -12 0 -13 -3 -4 -14 6 -7 9 -21 5 -30 -4 -9 -1
-16 6 -16 9 0 8 -7 -3 -24 -14 -21 -14 -24 -2 -22 9 1 21 8 27 14 20 20 28 13
16 -13 -6 -13 -15 -22 -20 -18 -6 3 -5 -4 1 -15 6 -11 11 -30 11 -41 0 -11 7
-26 15 -35 22 -22 18 -27 -12 -20 -25 7 -27 6 -14 -9 7 -9 17 -14 22 -11 5 3
9 -7 9 -21 0 -15 -4 -24 -10 -20 -17 10 -24 -26 -12 -59 7 -19 8 -32 3 -34 -6
-2 -8 -9 -5 -17 3 -7 -9 -23 -25 -35 -17 -12 -31 -29 -31 -39 0 -9 -9 -34 -20
-56 -11 -22 -20 -41 -20 -43 0 -1 18 -1 40 2 30 3 40 1 40 -10 0 -8 -4 -14
-10 -14 -5 0 -10 -6 -10 -14 0 -8 -6 -17 -12 -19 -10 -4 -10 -8 1 -15 16 -11
7 -32 -14 -32 -8 0 -12 -6 -9 -14 3 -8 -3 -19 -15 -26 -22 -11 -45 -5 -36 10
7 11 -16 6 -71 -13 -42 -16 -74 -8 -74 17 0 15 -24 28 -34 19 -3 -3 14 -23 37
-44 37 -34 40 -38 20 -39 -13 0 -23 6 -23 13 0 7 -10 17 -22 22 -11 6 -25 21
-30 35 -5 13 -6 21 -2 17 10 -10 33 24 27 40 -4 9 -10 10 -24 2 -14 -7 -19 -6
-19 2 0 6 -8 9 -19 6 -21 -5 -57 28 -41 38 6 4 10 1 10 -5 0 -7 6 -10 13 -7 6
2 21 0 32 -6 17 -8 16 -6 -4 17 -14 14 -22 28 -19 31 3 3 11 -1 18 -10 23 -27
32 -16 11 14 -24 33 -26 47 -8 54 7 4 6 6 -4 6 -9 1 -20 8 -23 17 -11 30 -6
35 16 14 22 -21 38 -26 38 -12 0 4 3 17 6 30 4 14 2 22 -6 22 -7 0 -10 -7 -7
-15 5 -12 2 -12 -18 -3 -16 7 -25 20 -25 33 0 13 -7 28 -15 35 -8 7 -15 18
-15 26 0 7 -5 16 -12 20 -7 4 -8 3 -4 -4 4 -7 2 -12 -3 -12 -6 0 -11 8 -11 18
-1 24 -26 55 -39 47 -7 -4 -10 3 -8 17 1 17 -4 24 -20 26 -13 2 -23 -1 -23 -7
0 -21 -31 2 -60 44 -21 30 -26 45 -17 48 9 3 7 10 -6 25 -11 12 -14 22 -8 26
14 9 2 36 -15 36 -8 0 -14 -4 -14 -10 0 -17 -26 0 -27 18 -1 9 -4 28 -8 41 -7
21 -6 22 14 12 24 -13 29 -4 6 13 -10 8 -12 15 -5 26 6 9 10 11 10 3 0 -7 7
-10 15 -7 10 4 15 0 15 -14 0 -11 7 -23 16 -26 11 -4 15 -2 11 8 -4 10 -1 13
8 10 7 -3 18 -22 23 -42 8 -32 10 -34 17 -18 6 13 4 21 -3 24 -20 6 -13 31 8
29 10 -1 17 -3 15 -5 -5 -6 40 -42 52 -42 4 0 2 4 -5 9 -11 7 -11 9 2 14 9 4
16 2 16 -4 0 -6 14 4 31 22 28 30 31 40 33 100 0 37 4 65 7 63 4 -2 10 3 13
12 3 8 2 12 -4 9 -6 -3 -11 6 -11 22 -1 17 -3 21 -6 11 -2 -10 -9 -18 -15 -18
-5 0 -7 -7 -4 -16 5 -14 4 -15 -9 -4 -13 10 -13 15 -1 32 11 15 12 27 5 45 -5
13 -5 22 0 19 13 -9 31 37 27 69 -3 17 -5 36 -5 43 -1 7 -5 10 -11 7 -5 -3
-10 -1 -10 4 0 6 -7 11 -15 11 -8 0 -15 -7 -15 -16 0 -8 -4 -13 -9 -9 -5 3
-12 -3 -14 -12 -3 -11 -5 -8 -6 10 0 15 4 27 10 27 6 0 8 9 4 20 -5 15 -3 18
9 14 9 -3 14 -10 11 -14 -3 -5 4 -8 15 -7 17 1 24 14 22 38 -1 3 11 4 25 1 18
-3 24 -1 19 7 -4 6 2 24 13 40 l21 29 -33 -5 c-24 -3 -38 1 -48 14 -13 17 -13
17 5 3 18 -14 18 -13 12 8 -6 16 -4 21 7 17 18 -8 36 34 30 69 -3 15 0 38 7
51 7 14 10 37 7 54 -4 17 -2 33 4 37 8 4 7 9 -1 14 -9 5 -3 12 16 21 16 8 30
24 32 36 3 21 35 35 57 24 5 -3 24 -4 41 -3z m1249 -228 c3 -5 -1 -10 -10 -10
-9 0 -13 5 -10 10 3 6 8 10 10 10 2 0 7 -4 10 -10z m-1435 -46 c0 -8 -5 -12
-10 -9 -6 4 -8 11 -5 16 9 14 15 11 15 -7z m-4 -111 c-10 -10 -19 5 -10 18 6
11 8 11 12 0 2 -7 1 -15 -2 -18z m-52 -9 c3 -8 2 -12 -4 -9 -6 3 -10 10 -10
16 0 14 7 11 14 -7z m-1774 -44 c-6 -11 -15 -20 -20 -20 -6 0 -5 9 2 20 7 11
16 20 21 20 4 0 3 -9 -3 -20z m90 -15 c0 -9 -6 -12 -15 -9 -8 4 -12 10 -9 15
8 14 24 10 24 -6z m40 -11 c0 -8 -5 -12 -10 -9 -6 4 -8 11 -5 16 9 14 15 11
15 -7z m-102 -22 c6 -18 -15 -14 -22 4 -4 10 -1 14 6 12 6 -2 14 -10 16 -16z
m1396 -19 c11 14 19 15 40 7 14 -5 26 -12 26 -15 0 -4 -4 -4 -9 0 -20 12 -20
-14 0 -36 11 -13 18 -18 14 -11 -3 6 -3 17 1 23 6 11 63 -47 63 -66 1 -5 -4
-3 -10 5 -8 12 -10 9 -6 -13 3 -21 1 -25 -9 -17 -9 9 -11 7 -7 -8 3 -13 -3
-25 -18 -36 l-23 -16 24 -1 c25 -2 25 -2 2 -6 -15 -3 -22 -10 -18 -18 3 -8 0
-17 -6 -21 -7 -4 -8 -3 -4 4 5 8 -1 12 -14 12 -12 0 -18 -4 -15 -10 3 -5 -1
-10 -9 -10 -8 0 -20 -9 -26 -20 -8 -16 -8 -20 4 -20 8 0 17 -4 20 -8 3 -5 -8
-8 -24 -7 -16 1 -27 -2 -24 -7 3 -4 -1 -8 -8 -8 -10 0 -10 -2 1 -9 16 -10 25
-61 10 -61 -5 0 -9 6 -9 13 0 8 -4 7 -10 -3 -15 -24 -12 -32 11 -25 16 5 20 3
17 -6 -3 -8 -1 -26 3 -41 7 -26 6 -28 -22 -28 -25 0 -29 3 -24 23 3 12 1 28
-4 36 -8 12 -12 12 -25 2 -20 -17 -21 -41 -1 -41 17 0 20 -16 5 -25 -5 -3 -7
-11 -4 -18 2 -7 -6 -18 -18 -26 -20 -13 -22 -13 -10 1 10 12 10 18 -2 27 -12
10 -15 8 -18 -10 -6 -43 -25 -32 -22 13 1 23 8 44 13 46 6 2 11 11 11 20 -1
15 -2 15 -14 0 -16 -22 -30 -23 -22 -2 4 10 1 14 -6 11 -7 -2 -12 -12 -12 -21
1 -9 -3 -16 -8 -16 -6 0 -8 -7 -4 -15 7 -18 -10 -20 -18 -2 -3 6 -3 2 0 -10 6
-25 -5 -30 -25 -10 -8 6 -6 0 4 -15 17 -27 16 -27 -9 -34 -28 -7 -34 -19 -13
-27 12 -4 43 29 40 43 -1 3 5 11 13 18 11 10 14 10 14 -2 0 -7 6 -16 14 -19 7
-3 16 -15 19 -27 5 -18 2 -21 -13 -17 -12 3 -25 -4 -37 -19 -12 -16 -24 -22
-37 -18 -13 4 -16 2 -11 -6 5 -9 2 -10 -13 -6 -15 5 -20 2 -18 -10 1 -18 -48
-52 -77 -53 -11 -1 -21 -9 -24 -19 -5 -19 -57 -47 -72 -38 -16 10 -42 -6 -52
-30 -5 -15 -17 -24 -30 -24 -15 0 -19 -5 -15 -15 4 -12 2 -13 -12 -6 -12 6
-23 5 -37 -5 -10 -8 -31 -14 -45 -14 -17 0 -34 -10 -48 -29 -12 -16 -32 -31
-44 -33 -17 -2 -22 -9 -21 -25 3 -24 -21 -50 -32 -33 -9 14 -38 13 -71 -5 -21
-11 -24 -16 -12 -20 8 -3 19 -5 24 -4 22 4 22 -3 -1 -25 -17 -17 -31 -22 -49
-19 -20 4 -26 1 -26 -12 0 -21 -32 -54 -37 -38 -2 6 -14 9 -26 6 -22 -5 -22
-5 -2 10 20 16 20 16 -2 17 -12 0 -27 -9 -33 -20 -6 -11 -17 -20 -25 -20 -8 0
-12 -8 -10 -20 4 -19 3 -19 -21 -4 -21 14 -24 14 -24 1 0 -8 -11 -18 -24 -21
-15 -4 -26 -15 -28 -29 l-3 -22 -7 23 c-5 18 -1 25 16 32 13 5 26 16 30 25 6
18 -6 13 -37 -13 -9 -8 -20 -12 -24 -9 -3 4 -14 -4 -23 -19 l-17 -25 -7 23
c-6 22 -7 22 -20 5 -12 -15 -14 -15 -19 -3 -4 9 1 20 11 26 21 14 6 9 -30 -9
-16 -8 -28 -20 -28 -28 0 -7 -4 -13 -10 -13 -5 0 -10 5 -10 11 0 8 -4 8 -12 1
-10 -7 -21 -4 -40 13 -16 13 -28 28 -28 34 0 5 -6 12 -12 14 -9 4 -8 6 2 6 23
1 20 41 -2 41 -24 0 -34 -28 -20 -51 17 -27 15 -34 -12 -34 -18 0 -22 3 -14
13 12 14 0 16 -21 3 -12 -8 -13 -12 -1 -25 22 -28 2 -30 -22 -3 -20 23 -23 24
-35 8 -12 -15 -13 -15 -7 1 4 11 0 20 -10 24 -9 3 -16 14 -16 23 1 14 2 14 14
-2 11 -14 22 -17 50 -12 20 4 33 11 30 16 -3 5 0 9 6 9 6 0 8 5 4 12 -5 7 -11
5 -21 -7 -11 -16 -13 -17 -13 -3 0 9 5 20 10 23 6 3 10 11 10 16 0 6 -4 8 -8
5 -5 -3 -19 2 -31 10 l-21 15 22 20 c13 12 17 18 11 14 -7 -3 -27 -8 -44 -10
-28 -3 -30 -2 -16 13 9 11 13 34 12 62 -3 56 -2 55 -20 40 -9 -7 -18 -10 -22
-6 -3 3 -2 6 4 6 6 0 13 9 16 20 6 25 -1 26 -19 3 -13 -17 -14 -17 -8 0 3 9 2
17 -3 17 -14 0 -34 48 -23 55 4 3 10 1 12 -4 5 -14 48 -24 48 -11 0 6 4 9 9 5
6 -3 15 5 21 17 10 20 10 21 -3 6 -11 -14 -16 -15 -27 -5 -10 9 -11 9 -6 0 5
-9 0 -13 -15 -13 -17 0 -19 3 -10 14 9 10 8 16 -4 26 -21 17 -19 25 11 38 20
10 24 17 18 34 -5 17 -3 20 10 15 10 -4 15 -3 11 3 -9 15 -17 12 -48 -14 l-29
-25 -23 25 c-13 14 -29 22 -38 18 -8 -3 -18 -1 -22 5 -6 11 7 15 33 12 15 -2
16 11 2 25 -14 14 10 35 52 43 17 4 33 12 36 19 2 8 -2 10 -13 6 -10 -4 -21
-1 -26 7 -12 19 -11 32 1 24 10 -6 75 23 67 31 -2 3 -16 0 -31 -5 -18 -7 -26
-7 -26 0 0 6 -7 18 -16 26 -13 13 -13 17 -2 24 10 7 11 12 0 29 -7 11 -8 20
-3 20 5 0 11 -5 13 -10 2 -6 13 -2 25 10 12 11 27 20 32 20 17 0 23 20 10 36
-10 12 -9 13 5 8 9 -3 16 -2 16 4 0 5 -10 12 -22 15 -17 5 -19 9 -10 20 7 8 9
17 5 21 -4 4 1 4 12 0 14 -6 17 -4 12 9 -3 9 -2 19 4 22 5 4 9 3 8 -2 -3 -19
2 -36 9 -29 7 7 8 11 11 39 1 8 4 8 11 -3 7 -12 12 -11 32 5 18 16 20 16 9 2
-8 -9 -11 -21 -7 -25 4 -4 14 1 21 12 9 12 22 17 38 14 16 -3 24 0 24 9 0 8
-6 12 -14 9 -16 -7 -17 6 0 23 6 6 12 17 12 23 0 6 6 13 13 16 8 2 12 -7 12
-27 0 -33 13 -45 50 -47 34 -1 54 -7 62 -19 5 -6 12 -5 20 3 14 14 32 16 23 3
-3 -5 0 -13 6 -17 8 -4 9 -3 5 4 -4 7 -2 12 4 12 6 0 9 4 5 9 -3 5 -1 12 5 16
9 6 14 -7 11 -27 -2 -13 27 -9 33 5 3 6 4 3 3 -7 -1 -10 4 -21 11 -23 6 -3 12
2 12 11 0 21 36 21 44 1 4 -13 10 -14 26 -5 11 6 20 7 20 2 0 -6 9 -12 20 -15
11 -3 20 -1 20 3 0 4 9 6 21 3 16 -5 18 -8 7 -15 -9 -7 -7 -8 7 -3 11 4 27 7
35 6 8 -1 26 -2 39 -2 17 -1 20 -3 10 -9 -7 -5 -10 -12 -6 -16 3 -4 14 -1 22
6 13 11 18 11 28 0 10 -10 9 -12 -4 -7 -9 3 -23 -3 -33 -14 -16 -19 -15 -19
31 -14 27 3 66 11 88 19 35 12 41 12 52 -3 9 -12 12 -12 13 -2 0 7 6 11 15 8
8 -4 17 -1 21 5 4 7 3 8 -4 4 -7 -4 -12 -1 -12 8 0 9 2 16 4 16 2 0 12 3 22 7
10 4 15 2 11 -3 -8 -13 39 -10 55 4 8 6 19 7 28 2 8 -5 24 -3 42 6 16 8 28 10
28 4 0 -5 -5 -10 -12 -10 -6 0 -8 -3 -5 -6 4 -4 18 1 32 10 14 9 25 12 25 6 0
-5 5 -10 10 -10 6 0 10 7 10 16 0 9 14 21 30 27 17 6 30 15 30 19 0 4 13 5 30
2 23 -5 31 -2 37 12 8 21 44 58 58 60 6 1 18 2 28 3 9 0 17 8 17 17 0 8 4 13
9 9 6 -3 14 3 20 12 5 10 21 19 36 21 17 1 24 -2 19 -10 -4 -7 -3 -8 5 -4 6 4
8 12 5 18 -4 6 0 14 7 19 23 15 30 10 18 -12 -9 -17 -8 -20 3 -17 13 5 14 8
17 51 l1 22 20 -25 c19 -24 21 -24 34 -7z m370 -23 c-6 -6 -10 -3 -10 10 0 13
4 16 10 10 7 -7 7 -13 0 -20z m-24 -4 c0 -3 -4 -8 -10 -11 -5 -3 -10 -1 -10 4
0 6 5 11 10 11 6 0 10 -2 10 -4z m-1800 -21 c-7 -8 -16 -15 -21 -15 -5 0 -9 7
-9 15 0 9 9 15 21 15 18 0 19 -2 9 -15z m1755 -5 c3 -5 1 -10 -4 -10 -6 0 -11
5 -11 10 0 6 2 10 4 10 3 0 8 -4 11 -10z m29 -40 c-17 -33 -20 -35 -30 -18 -5
7 -3 8 6 3 10 -6 12 -4 7 7 -3 9 0 21 6 27 20 20 26 11 11 -19z m-3924 -12
c-1 -7 -7 -26 -14 -43 l-13 -30 3 40 c2 22 3 41 3 43 3 9 21 0 21 -10z m2077
-25 c-4 -3 -2 -12 4 -19 6 -7 6 -14 1 -18 -6 -3 -13 1 -16 10 -6 16 0 34 11
34 4 0 3 -3 0 -7z m93 -12 c0 -4 -6 -8 -14 -8 -8 0 -12 6 -9 14 5 13 23 9 23
-6z m84 -5 c-8 -20 -34 -29 -34 -12 0 13 13 23 32 25 4 1 5 -5 2 -13z m59 -2
c-4 -10 1 -17 16 -21 28 -7 18 -22 -12 -16 -25 5 -32 32 -13 45 15 11 16 10 9
-8z m-305 -18 c-7 -8 -15 -12 -17 -11 -5 6 10 25 20 25 5 0 4 -6 -3 -14z m372
-6 c0 -5 -4 -10 -10 -10 -5 0 -10 5 -10 10 0 6 5 10 10 10 6 0 10 -4 10 -10z
m1980 -30 c0 -5 -2 -10 -4 -10 -3 0 -8 5 -11 10 -3 6 -1 10 4 10 6 0 11 -4 11
-10z m-647 -23 c3 -7 -3 -13 -14 -13 -13 0 -15 3 -7 13 6 7 12 13 13 13 2 0 5
-6 8 -13z m-3389 -50 c4 -19 3 -26 -4 -22 -5 3 -10 18 -10 32 0 32 5 28 14
-10z m-184 3 c0 -5 -4 -10 -10 -10 -5 0 -10 5 -10 10 0 6 5 10 10 10 6 0 10
-4 10 -10z m50 -57 c5 -7 7 -19 4 -28 -4 -8 -1 -21 5 -29 6 -7 9 -15 6 -18 -5
-4 -7 -45 -18 -280 -2 -32 -6 -60 -9 -64 -12 -11 -48 17 -48 37 0 13 4 18 12
13 7 -4 8 -3 4 5 -4 6 -11 9 -16 6 -10 -6 -24 31 -15 44 3 5 1 12 -5 16 -6 4
-8 11 -4 16 3 5 0 16 -6 24 -7 8 -10 21 -7 29 3 7 -1 26 -9 41 -8 15 -14 38
-14 51 0 13 -5 24 -11 24 -7 0 -10 12 -7 30 2 16 0 31 -6 33 -6 3 -8 8 -3 13
4 4 14 -2 22 -13 8 -11 26 -23 40 -25 23 -5 25 -3 21 28 -3 19 -1 36 4 39 5 3
6 13 3 22 -5 12 -2 15 10 10 12 -4 15 -2 11 11 -4 13 -2 12 10 -3 8 -11 20
-25 26 -32z m1790 32 c5 3 7 0 4 -8 -3 -9 -13 -13 -25 -10 -13 4 -19 0 -19
-11 0 -9 -4 -16 -9 -16 -5 0 -16 -3 -25 -6 -11 -4 -16 -1 -16 10 0 9 6 16 14
16 7 0 16 9 19 21 5 17 9 19 26 9 12 -6 26 -8 31 -5z m1960 11 c0 -3 -4 -8
-10 -11 -5 -3 -10 -1 -10 4 0 6 5 11 10 11 6 0 10 -2 10 -4z m-3631 -46 c4 0
13 6 20 13 11 10 12 7 6 -13 -17 -57 -27 -75 -33 -60 -3 8 -9 18 -15 21 -5 4
-6 13 -1 20 5 8 8 23 7 34 -1 16 -1 16 3 3 3 -10 9 -18 13 -18z m3347 8 c-1
-18 4 -22 22 -21 12 2 22 -2 22 -7 0 -6 -4 -10 -10 -10 -5 0 -10 -6 -10 -14 0
-9 -12 -14 -36 -14 -27 0 -34 3 -30 15 3 8 6 25 6 38 0 14 7 25 18 28 9 3 17
5 18 6 0 0 0 -9 0 -21z m248 -7 c3 -5 -3 -11 -15 -14 -16 -4 -18 -3 -8 9 13
16 16 17 23 5z m56 5 c0 -2 -8 -10 -17 -17 -16 -13 -17 -12 -4 4 13 16 21 21
21 13z m-1990 -16 c0 -5 -5 -10 -11 -10 -5 0 -7 5 -4 10 3 6 8 10 11 10 2 0 4
-4 4 -10z m3767 -42 c-3 -8 -6 -5 -6 6 -1 11 2 17 5 13 3 -3 4 -12 1 -19z
m-36 -11 c9 -7 19 -22 23 -35 4 -12 11 -20 16 -17 5 3 7 12 4 19 -6 16 29 31
47 21 6 -4 9 -16 6 -26 -9 -33 11 -31 39 5 25 31 29 33 41 18 8 -11 12 -12 13
-4 0 6 7 12 15 12 8 0 15 -3 15 -7 -1 -16 -39 -57 -46 -51 -12 12 -54 -45 -54
-74 0 -37 -10 -59 -24 -52 -6 3 0 -3 14 -15 21 -17 23 -21 8 -26 -9 -4 -25 -2
-36 4 -22 12 -33 5 -25 -15 5 -12 -7 -19 -29 -15 -5 0 -8 -3 -8 -8 0 -5 -3
-16 -6 -24 -3 -9 3 -16 15 -20 22 -5 20 -35 -2 -34 -32 1 -48 -4 -42 -13 4 -6
11 -8 16 -5 5 3 6 -1 3 -9 -3 -8 -12 -12 -20 -9 -8 3 -11 10 -7 15 4 7 -4 9
-21 6 -17 -4 -25 -1 -23 6 2 6 12 11 23 11 10 0 25 4 32 8 22 15 12 26 -23 24
-19 -1 -35 -7 -35 -13 0 -16 -28 -26 -36 -13 -5 9 28 51 38 46 2 -1 0 2 -4 7
-4 5 -3 15 3 23 8 9 8 13 0 13 -6 0 -11 -4 -11 -9 0 -5 -9 -11 -20 -14 -13 -3
-20 0 -20 8 0 7 -6 15 -12 18 -7 2 -10 8 -6 12 4 4 14 2 22 -4 21 -18 39 -5
26 18 -5 10 -8 20 -7 22 1 2 -3 -2 -10 -10 -7 -7 -18 -11 -26 -8 -8 3 -20 0
-26 -6 -8 -8 -11 -7 -11 6 0 9 7 17 15 17 8 0 15 6 15 14 0 9 7 12 20 9 15 -4
20 0 20 15 0 11 3 28 6 36 5 12 2 15 -10 10 -9 -3 -16 -12 -16 -19 0 -8 -4
-17 -10 -20 -6 -4 -10 5 -10 19 0 16 6 26 15 26 8 0 15 5 15 10 0 13 -6 13
-32 -1 -15 -8 -19 -8 -14 0 4 6 2 11 -4 11 -6 0 -9 4 -5 10 3 5 12 7 20 3 9
-3 22 0 30 7 8 6 19 9 25 5 5 -3 10 -1 10 4 0 6 7 11 16 11 9 0 21 14 27 30
13 33 15 35 38 17z m-2001 -22 c0 -25 -14 -34 -25 -16 -7 12 -64 11 -71 -1 -3
-4 0 -8 6 -8 6 0 8 -5 4 -11 -10 -17 -23 9 -16 33 4 16 10 19 38 14 18 -4 35
-2 39 4 11 18 25 10 25 -15z m1943 10 c7 -17 -8 -29 -28 -21 -8 3 -15 1 -15
-5 0 -11 -41 -29 -53 -22 -8 5 7 21 43 46 30 21 46 22 53 2z m-118 -25 c3 -5
1 -10 -4 -10 -6 0 -11 5 -11 10 0 6 2 10 4 10 3 0 8 -4 11 -10z m440 -31 c-6
-9 -35 -1 -35 10 0 4 3 11 7 14 8 9 34 -13 28 -24z m-2295 11 c0 -5 -2 -10 -4
-10 -3 0 -8 5 -11 10 -3 6 -1 10 4 10 6 0 11 -4 11 -10z m-1774 -12 c4 -7 3
-8 -5 -4 -6 4 -14 0 -17 -9 -5 -13 -9 -14 -15 -4 -4 7 -5 17 -3 21 8 12 32 10
40 -4z m1534 -29 c0 -6 -4 -7 -10 -4 -5 3 -10 11 -10 16 0 6 5 7 10 4 6 -3 10
-11 10 -16z m2470 11 c0 -5 -4 -10 -10 -10 -5 0 -10 5 -10 10 0 6 5 10 10 10
6 0 10 -4 10 -10z m-4015 -30 c3 -5 -1 -10 -10 -10 -9 0 -13 5 -10 10 3 6 8
10 10 10 2 0 7 -4 10 -10z m4031 -4 c29 5 33 4 28 -10 -4 -11 -13 -15 -26 -10
-15 4 -19 2 -16 -7 3 -8 12 -13 21 -13 14 1 14 -1 -1 -25 -27 -43 -41 -53 -60
-46 -15 6 -14 8 6 16 28 11 38 35 22 54 -15 19 -41 20 -34 2 3 -8 -1 -19 -9
-25 -12 -10 -13 -8 -9 15 6 30 35 69 40 53 2 -6 17 -8 38 -4z m-4085 -9 c-1
-12 -15 -9 -19 4 -3 6 1 10 8 8 6 -3 11 -8 11 -12z m1932 -44 c6 -31 3 -29
-22 12 -19 32 -19 34 -1 23 10 -7 20 -22 23 -35z m-1928 -13 c3 -5 1 -10 -4
-10 -6 0 -11 5 -11 10 0 6 2 10 4 10 3 0 8 -4 11 -10z m-1488 -49 c10 -15 10
-21 0 -24 -9 -4 -9 -7 1 -18 6 -7 12 -22 13 -33 0 -12 3 -16 6 -9 3 8 13 3 28
-15 17 -19 20 -30 13 -39 -9 -12 3 -17 32 -15 3 0 5 -16 5 -37 0 -32 3 -37 20
-36 11 1 28 -6 38 -17 9 -10 12 -18 6 -18 -7 0 0 -9 15 -21 14 -11 26 -26 26
-32 1 -19 37 -57 53 -57 9 0 19 -9 22 -21 4 -11 9 -18 12 -15 5 5 15 -2 48
-32 8 -7 15 -10 15 -6 0 5 5 3 12 -4 9 -9 7 -16 -10 -32 -12 -11 -23 -16 -27
-10 -3 6 -24 10 -46 10 -39 0 -99 23 -99 38 0 4 -14 15 -31 24 -23 14 -29 23
-24 38 5 14 2 20 -9 20 -9 0 -16 7 -16 15 0 8 -4 15 -9 15 -12 0 -34 57 -26
69 3 6 2 11 -2 11 -5 0 -9 9 -10 20 -1 11 -11 32 -23 47 -11 14 -25 46 -31 70
-6 24 -15 43 -20 43 -5 0 -9 7 -9 15 0 8 -4 15 -9 15 -5 0 -11 8 -13 18 -3 11
0 19 8 19 8 0 14 -4 14 -9 0 -4 5 -8 10 -8 18 0 10 17 -12 28 -22 10 -22 11
-3 11 11 1 26 -8 32 -18z m3528 -15 c-11 -16 -13 -26 -6 -31 6 -3 11 -11 11
-17 0 -6 -11 2 -25 18 -14 16 -25 33 -25 38 0 6 7 1 16 -10 13 -15 15 -16 10
-2 -3 10 2 18 12 21 9 3 18 5 20 6 1 0 -5 -10 -13 -23z m1674 -15 c8 -5 9 -11
3 -15 -14 -8 -43 4 -36 15 7 11 15 11 33 0z m-3629 -23 c0 -13 -19 -19 -25 -8
-4 6 -11 8 -16 4 -6 -4 -5 -12 2 -22 12 -16 12 -16 -5 0 -10 9 -16 21 -12 26
7 11 56 11 56 0z m2007 5 c-4 -3 3 -18 15 -31 17 -18 18 -24 7 -19 -13 4 -16
1 -11 -15 3 -14 1 -19 -6 -14 -7 4 -12 14 -12 22 0 8 -6 17 -13 20 -7 2 -13
13 -14 24 -1 14 5 20 19 20 12 0 18 -3 15 -7z m1938 -34 c11 -17 -1 -21 -15
-4 -8 9 -8 15 -2 15 6 0 14 -5 17 -11z m-1990 -8 c3 -5 1 -12 -5 -16 -5 -3
-10 1 -10 9 0 18 6 21 15 7z m115 -31 c7 -14 7 -20 0 -20 -5 0 -10 7 -10 16 0
9 -5 12 -12 8 -7 -4 -8 -3 -4 4 10 16 14 15 26 -8z m1805 0 c8 -13 -5 -13 -25
0 -13 8 -13 10 2 10 9 0 20 -4 23 -10z m-5585 -73 c0 -25 -4 -36 -11 -31 -6 3
-8 16 -5 28 5 19 4 20 -8 3 -12 -16 -14 -16 -20 -2 -3 9 -2 14 2 11 4 -3 14 4
20 15 12 18 11 19 -7 10 -15 -8 -20 -7 -25 6 -4 9 -4 18 -1 21 3 3 5 -1 5 -9
1 -9 4 -8 12 5 11 19 11 19 24 1 8 -10 14 -36 14 -58z m5533 54 c-3 -11 -11
-22 -18 -25 -16 -6 -8 24 9 36 15 10 15 10 9 -11z m-1333 -30 c0 -5 -7 -11
-15 -15 -9 -3 -15 0 -15 9 0 8 7 15 15 15 8 0 15 -4 15 -9z m-1386 -43 c-9
-14 -24 2 -24 25 1 21 1 21 15 3 8 -10 12 -23 9 -28z m839 7 c-3 -9 -8 -14
-10 -11 -3 3 -2 9 2 15 9 16 15 13 8 -4z m87 -6 c0 -6 -4 -7 -10 -4 -5 3 -10
11 -10 16 0 6 5 7 10 4 6 -3 10 -11 10 -16z m405 0 c-5 -14 -3 -19 3 -15 6 4
8 -2 5 -14 -3 -12 0 -20 7 -20 10 0 10 -3 0 -15 -7 -9 -18 -14 -23 -12 -13 4
-20 47 -8 47 4 0 6 11 3 25 -2 15 0 25 8 25 7 0 9 -8 5 -21z m-1395 -5 c0 -8
-4 -12 -10 -9 -5 3 -10 10 -10 16 0 5 5 9 10 9 6 0 10 -7 10 -16z m945 6 c3
-5 1 -10 -4 -10 -6 0 -11 5 -11 10 0 6 2 10 4 10 3 0 8 -4 11 -10z m1915 -10
c0 -5 -4 -10 -10 -10 -5 0 -10 5 -10 10 0 6 5 10 10 10 6 0 10 -4 10 -10z
m-2026 -59 c1 -24 -2 -41 -8 -41 -7 0 -10 18 -8 46 5 54 13 51 16 -5z m64 -16
l-25 -26 5 30 c2 17 8 31 13 31 5 0 9 8 10 18 0 14 2 13 11 -5 8 -17 6 -26
-14 -48z m-3658 43 c0 -9 4 -8 10 2 8 13 10 12 10 -2 0 -10 4 -18 9 -18 5 0 9
-15 8 -34 -1 -19 -6 -32 -10 -29 -5 3 -7 15 -6 26 2 34 -1 43 -9 30 -5 -8 -11
-3 -19 13 -6 13 -7 24 -2 24 5 0 9 -6 9 -12z m3465 -28 c3 -5 1 -10 -4 -10 -6
0 -11 5 -11 10 0 6 2 10 4 10 3 0 8 -4 11 -10z m65 -11 c0 -7 8 -18 18 -25 16
-13 16 -13 -1 -14 -10 0 -16 -4 -13 -9 3 -5 -1 -12 -10 -15 -8 -3 -12 -12 -9
-18 4 -7 0 -4 -9 6 -8 10 -13 22 -11 27 3 4 -1 9 -7 12 -10 3 -8 10 6 26 21
23 36 27 36 10z m-66 -44 c-7 -16 -24 -21 -24 -6 0 8 7 13 27 20 1 1 0 -6 -3
-14z m206 11 c0 -2 -8 -10 -17 -17 -16 -13 -17 -12 -4 4 13 16 21 21 21 13z
m-245 -36 c3 -5 1 -10 -4 -10 -6 0 -11 5 -11 10 0 6 2 10 4 10 3 0 8 -4 11
-10z m159 -21 c-8 -14 -24 -10 -24 6 0 9 6 12 15 9 8 -4 12 -10 9 -15z m106
-41 c14 -9 16 -16 9 -30 -5 -10 -15 -18 -22 -18 -8 0 -7 3 2 9 12 8 12 13 -2
35 -10 14 -21 25 -25 25 -19 -3 -20 3 -4 21 17 21 17 21 20 -5 2 -14 12 -31
22 -37z m-1926 37 c-4 -8 -8 -15 -10 -15 -2 0 -4 7 -4 15 0 8 4 15 10 15 5 0
7 -7 4 -15z m104 -10 c2 -2 -6 -14 -17 -27 -19 -19 -23 -20 -31 -8 -7 11 -5
16 6 18 13 3 13 6 -3 19 -17 13 -16 14 12 8 16 -4 32 -8 33 -10z m1529 -27
c-3 -8 -6 -5 -6 6 -1 11 2 17 5 13 3 -3 4 -12 1 -19z m133 12 c0 -5 -2 -10 -4
-10 -3 0 -8 5 -11 10 -3 6 -1 10 4 10 6 0 11 -4 11 -10z m615 -20 c-3 -5 -12
-10 -18 -10 -7 0 -6 4 3 10 19 12 23 12 15 0z m-506 -29 c-15 -5 -22 6 -14 19
6 9 10 9 16 -1 5 -8 4 -15 -2 -18z m-3524 0 c-4 -13 0 -23 12 -30 10 -6 14
-10 8 -11 -23 0 -37 18 -30 39 3 11 9 21 11 21 3 0 3 -9 -1 -19z m505 -11 c24
13 35 -3 32 -45 -4 -43 -19 -54 -32 -21 -6 16 -19 30 -30 33 -23 6 -25 14 -8
31 8 8 14 9 16 2 2 -6 10 -7 22 0z m1670 -30 c0 -5 -2 -10 -4 -10 -3 0 -8 5
-11 10 -3 6 -1 10 4 10 6 0 11 -4 11 -10z m1600 -15 c0 -8 -7 -15 -15 -15 -8
0 -15 7 -15 15 0 8 7 15 15 15 8 0 15 -7 15 -15z m-3703 -18 c12 5 14 1 9 -15
-6 -16 -4 -21 7 -16 7 2 20 -2 27 -11 7 -8 17 -15 22 -15 5 0 19 -10 31 -23
31 -32 67 -53 103 -61 17 -4 41 -16 52 -26 12 -11 27 -20 33 -20 7 0 31 -16
55 -35 l43 -36 7 28 c4 15 9 31 11 35 5 9 54 -11 68 -28 6 -7 22 -14 35 -16
15 -2 27 -13 33 -32 11 -33 65 -88 79 -80 5 3 15 1 22 -5 7 -6 23 -10 34 -9
11 2 20 -1 19 -7 -1 -5 -10 -8 -19 -7 -24 4 -23 -19 1 -25 15 -4 19 -12 16
-34 -2 -16 1 -29 7 -29 5 0 7 7 4 16 -3 8 -2 12 4 9 13 -8 13 -42 1 -49 -5 -4
-12 0 -15 6 -3 7 -4 2 -1 -13 3 -20 -2 -29 -24 -42 -27 -16 -66 -18 -88 -4 -6
4 -15 3 -18 -3 -5 -8 -11 -8 -20 0 -8 7 -19 9 -25 5 -5 -3 -10 -1 -10 5 0 7
-7 10 -14 7 -10 -4 -13 -1 -9 8 3 10 -5 18 -23 25 -16 6 -38 21 -49 34 -25 27
-92 59 -110 52 -9 -3 -12 0 -8 10 3 8 -1 14 -9 14 -8 0 -26 9 -39 20 -13 11
-36 30 -51 42 -15 13 -28 29 -28 36 0 6 -4 11 -8 10 -11 -4 -54 42 -71 75 -8
15 -19 26 -25 24 -14 -5 -46 36 -46 57 0 9 -7 16 -16 16 -10 0 -14 6 -10 15 3
8 2 15 -3 15 -10 0 -23 35 -25 65 -1 24 18 41 22 20 2 -8 10 -11 19 -8z m1763
12 c0 -6 7 -8 18 -4 13 5 14 3 5 -6 -6 -6 -19 -9 -27 -6 -18 7 -22 27 -6 27 6
0 10 -5 10 -11z m-50 -29 c0 -5 -7 -7 -15 -4 -8 4 -15 8 -15 10 0 2 7 4 15 4
8 0 15 -4 15 -10z m-1220 -4 c0 -3 -4 -8 -10 -11 -5 -3 -10 -1 -10 4 0 6 5 11
10 11 6 0 10 -2 10 -4z m15 -46 c-3 -5 -14 -10 -23 -10 -15 0 -15 2 -2 10 20
13 33 13 25 0z m3035 -575 c-12 -15 -30 -12 -30 6 0 5 10 9 21 9 18 0 19 -2 9
-15z m51 -5 c1 -5 2 -15 3 -20 0 -6 7 -15 15 -19 7 -5 10 -14 7 -20 -4 -6 -2
-11 3 -11 17 0 13 -21 -6 -36 -24 -17 -125 -2 -120 17 1 7 -4 14 -12 17 -8 3
-11 0 -7 -7 4 -7 0 -11 -11 -11 -16 1 -15 3 6 20 13 11 18 20 12 20 -7 0 -10
4 -6 9 3 6 14 8 24 6 11 -2 22 3 25 11 3 9 10 13 15 10 5 -3 14 1 21 9 14 17
29 20 31 5z m-121 -10 c0 -5 -4 -10 -10 -10 -5 0 -10 5 -10 10 0 6 5 10 10 10
6 0 10 -4 10 -10z m-73 -32 c-3 -8 -6 -5 -6 6 -1 11 2 17 5 13 3 -3 4 -12 1
-19z m-127 8 c0 -3 -4 -8 -10 -11 -5 -3 -10 -1 -10 4 0 6 5 11 10 11 6 0 10
-2 10 -4z m90 -35 c0 -17 -12 -41 -21 -41 -10 0 -12 33 -2 43 9 10 23 9 23 -2z
m30 -22 c0 -6 -4 -7 -10 -4 -5 3 -10 11 -10 16 0 6 5 7 10 4 6 -3 10 -11 10
-16z m-190 -19 c0 -5 -5 -10 -11 -10 -5 0 -7 5 -4 10 3 6 8 10 11 10 2 0 4 -4
4 -10z m523 -489 c15 -6 27 -18 27 -26 0 -12 6 -15 20 -10 12 4 20 2 20 -5 0
-6 4 -9 8 -6 19 11 46 -70 36 -108 l-6 -26 -112 0 c-145 1 -206 20 -223 71
l-11 34 -10 -26 c-15 -37 -61 -46 -84 -16 -10 14 -16 16 -15 7 1 -8 -2 -15 -8
-15 -5 0 -10 7 -10 15 0 9 -10 16 -25 17 l-25 2 25 -8 c24 -8 24 -9 3 -10 -28
-1 -46 28 -28 46 8 7 19 13 25 13 7 0 10 6 7 14 -5 11 0 12 24 3 16 -6 29 -15
29 -19 0 -4 7 -8 15 -8 8 0 15 6 15 13 0 9 2 9 8 -1 10 -14 32 -5 90 36 17 13
32 20 32 16 0 -5 4 -4 10 2 12 12 126 9 163 -5z m212 -95 c67 -23 56 -71 -19
-83 -42 -7 -52 8 -42 62 8 40 7 40 61 21z m-499 -157 c3 -5 23 -9 44 -9 22 0
49 -4 62 -9 13 -5 35 -12 51 -15 31 -7 36 -31 9 -45 -28 -15 -136 4 -172 29
-16 12 -30 18 -30 15 0 -4 -7 1 -16 10 -23 22 -11 44 20 38 15 -3 29 -9 32
-14z m-116 1 c0 -5 -2 -10 -4 -10 -3 0 -8 5 -11 10 -3 6 -1 10 4 10 6 0 11 -4
11 -10z m575 -20 c-3 -5 -1 -10 4 -10 6 0 11 -7 11 -15 0 -8 -4 -15 -10 -15
-5 0 -10 4 -10 9 0 5 -3 16 -6 25 -3 9 -1 16 6 16 6 0 8 -4 5 -10z m-168 -32
c-16 -10 -21 -2 -13 19 6 15 9 15 16 3 6 -9 5 -17 -3 -22z m43 12 c0 -5 -4
-10 -10 -10 -5 0 -10 5 -10 10 0 6 5 10 10 10 6 0 10 -4 10 -10z m67 -12 c-3
-8 -6 -5 -6 6 -1 11 2 17 5 13 3 -3 4 -12 1 -19z m-270 -775 c9 -24 -3 -24
-26 1 l-23 25 22 -6 c12 -3 24 -12 27 -20z m-695 -35 c-8 -8 -9 -4 -5 13 4 13
8 18 11 10 2 -7 -1 -18 -6 -23z m177 10 c9 3 11 0 7 -7 -5 -7 -20 -9 -42 -5
-27 5 -34 3 -34 -10 0 -13 8 -16 35 -13 19 2 37 2 40 -2 4 -3 20 -6 36 -7 17
-1 41 -12 54 -24 13 -12 28 -19 34 -15 7 4 11 -3 11 -17 1 -20 2 -21 11 -6 5
9 16 15 23 12 8 -3 17 0 21 6 6 9 10 9 16 -1 14 -22 11 -29 -13 -29 -29 0 -16
-11 17 -14 16 -2 29 2 32 11 4 11 11 10 38 -5 29 -18 33 -18 44 -3 10 14 11
13 8 -5 -3 -16 0 -20 12 -17 10 2 23 -3 30 -11 11 -14 11 -16 -5 -17 -16 0
-16 -2 4 -9 12 -5 22 -14 22 -19 0 -5 9 -7 20 -4 17 5 18 8 8 21 -10 12 -10
16 0 19 6 3 12 11 12 18 0 7 6 15 13 18 15 6 47 -15 47 -32 0 -16 17 -13 24 5
3 8 2 12 -4 9 -6 -3 -10 -2 -10 4 0 6 14 17 30 26 27 14 30 14 30 0 0 -10 14
-17 40 -21 24 -4 40 -12 40 -20 0 -8 7 -14 16 -14 12 0 14 3 6 13 -8 9 -6 16
8 25 16 10 18 9 14 -3 -4 -10 0 -15 12 -15 16 0 16 -1 -2 -14 -10 -8 -16 -18
-12 -22 5 -4 17 1 27 10 16 14 23 15 38 6 16 -10 16 -11 1 -6 -13 4 -18 0 -18
-13 0 -12 10 -21 25 -25 32 -8 33 -28 1 -22 -37 7 -22 -28 20 -44 19 -8 34
-17 34 -22 0 -10 -27 -10 -34 0 -4 8 -16 7 -86 -1 -14 -2 -24 -8 -23 -13 3
-15 -29 -44 -49 -44 -10 0 -18 5 -18 11 0 6 9 9 20 6 11 -3 20 -2 20 3 0 4
-13 10 -29 12 -24 4 -29 1 -25 -15 3 -18 -15 -57 -27 -57 -4 0 -9 9 -12 21 -6
21 -6 21 -31 2 -31 -22 -37 -50 -6 -31 10 7 22 9 26 6 8 -9 -17 -33 -36 -34
-8 -1 -25 -4 -37 -8 -26 -8 -33 11 -8 20 20 8 19 20 -1 28 -21 8 -54 -21 -54
-47 0 -13 -5 -17 -15 -13 -12 4 -14 0 -8 -22 5 -23 4 -25 -9 -14 -9 7 -24 9
-33 5 -14 -5 -16 -3 -10 7 7 11 -3 12 -50 7 -58 -6 -94 -29 -55 -35 11 -2 20
-8 20 -14 0 -6 -9 -8 -21 -5 -16 4 -19 2 -15 -10 6 -14 4 -14 -11 -2 -10 8
-22 20 -26 27 -5 7 -12 10 -18 7 -5 -4 -9 -1 -9 5 0 7 7 9 16 6 18 -7 50 19
34 29 -5 3 -10 1 -10 -5 0 -8 -6 -8 -21 0 -25 14 -26 13 -32 -27 -3 -17 -10
-39 -16 -50 -11 -16 -11 -15 -5 6 5 19 3 23 -10 18 -9 -4 -15 -2 -13 5 1 7 -7
12 -18 12 -11 0 -26 11 -33 23 -7 13 -22 23 -34 23 -21 0 -21 0 -2 15 18 14
18 14 -4 15 -19 0 -22 4 -17 20 4 11 2 20 -4 20 -6 0 -11 -4 -11 -10 0 -5 -7
-10 -15 -10 -9 0 -12 6 -8 17 5 13 2 15 -15 11 -15 -4 -19 -2 -15 8 3 8 -1 21
-8 30 -7 9 -9 18 -3 22 13 10 35 51 39 74 3 14 -1 18 -13 16 -9 -2 -16 -11
-16 -21 1 -9 -3 -14 -8 -11 -5 3 -16 -2 -24 -12 -11 -15 -13 -16 -8 -2 4 11
-1 18 -15 23 -12 3 -21 13 -21 20 0 8 -9 19 -20 25 -11 6 -19 14 -19 18 3 19
-2 23 -16 12 -8 -7 -15 -8 -15 -4 0 5 9 15 20 22 12 7 20 18 19 25 -3 27 2 39
15 34 17 -7 49 54 40 76 -3 9 3 16 16 20 15 4 20 2 16 -8 -2 -7 1 -18 8 -24
10 -9 12 -6 8 14 -3 19 1 27 19 34 13 5 31 5 39 1 8 -4 21 -5 29 -2z m566 -38
c3 -5 1 -10 -4 -10 -6 0 -11 5 -11 10 0 6 2 10 4 10 3 0 8 -4 11 -10z m-142
-34 c4 -10 1 -13 -9 -9 -15 6 -19 23 -5 23 5 0 11 -7 14 -14z m57 4 c0 -5 -4
-10 -10 -10 -5 0 -10 5 -10 10 0 6 5 10 10 10 6 0 10 -4 10 -10z m-110 -55 c0
-8 -2 -15 -4 -15 -2 0 -6 7 -10 15 -3 8 -1 15 4 15 6 0 10 -7 10 -15z m385
-25 c3 -5 -1 -10 -10 -10 -9 0 -13 5 -10 10 3 6 8 10 10 10 2 0 7 -4 10 -10z
m35 -60 c0 -5 -5 -10 -11 -10 -5 0 -7 5 -4 10 3 6 8 10 11 10 2 0 4 -4 4 -10z
m70 1 c0 -6 -4 -13 -10 -16 -5 -3 -10 1 -10 9 0 9 5 16 10 16 6 0 10 -4 10 -9z
m71 -13 c13 2 16 -4 14 -30 -2 -18 -4 -37 -5 -43 0 -5 -7 -2 -14 8 -11 14 -15
15 -19 5 -4 -10 -9 -9 -20 5 -11 13 -17 15 -22 7 -5 -9 -10 -9 -19 0 -8 8 -6
15 9 25 11 8 25 18 30 23 6 5 15 7 20 4 6 -4 17 -5 26 -4z m36 -40 c-3 -7 -5
-2 -5 12 0 14 2 19 5 13 2 -7 2 -19 0 -25z m-147 8 c0 -3 -4 -8 -10 -11 -5 -3
-10 -1 -10 4 0 6 5 11 10 11 6 0 10 -2 10 -4z m44 -42 c9 -3 13 -10 10 -15 -3
-5 0 -9 5 -9 6 0 11 -4 11 -9 0 -15 -35 -1 -48 20 -12 19 -6 24 22 13z m76
-28 c0 -3 -4 -8 -10 -11 -5 -3 -10 -1 -10 4 0 6 5 11 10 11 6 0 10 -2 10 -4z
m-220 -18 c0 -4 -4 -8 -9 -8 -6 0 -12 4 -15 8 -3 5 1 9 9 9 8 0 15 -4 15 -9z
m-15 -38 c3 -5 1 -10 -4 -10 -6 0 -11 5 -11 10 0 6 2 10 4 10 3 0 8 -4 11 -10z
m-385 -151 c0 -5 -7 -9 -15 -9 -15 0 -20 12 -9 23 8 8 24 -1 24 -14z m58 3 c2
-7 -3 -12 -12 -12 -9 0 -16 7 -16 16 0 17 22 14 28 -4z m-6231 -3771 c-4 -52
-13 -92 -27 -116 -11 -20 -18 -45 -15 -54 5 -18 -27 -154 -49 -206 -15 -34
-36 -148 -40 -217 -2 -29 -17 -76 -38 -120 -64 -133 -71 -180 -69 -482 1 -65
-2 -122 -5 -127 -3 -6 -1 -16 5 -23 14 -17 6 -145 -14 -213 -8 -29 -22 -77
-30 -105 -15 -53 -32 -129 -40 -181 -3 -15 -9 -36 -14 -46 -6 -9 -13 -53 -16
-97 -4 -43 -13 -104 -20 -134 -7 -30 -16 -111 -20 -180 -4 -69 -9 -145 -12
-170 -8 -72 -9 -688 -1 -765 4 -38 12 -122 18 -185 7 -63 16 -120 20 -125 5
-6 7 -32 5 -57 -3 -26 2 -67 9 -92 8 -25 12 -47 10 -49 -2 -2 1 -29 6 -60 14
-74 21 -116 26 -152 2 -16 10 -84 19 -150 9 -66 16 -133 15 -149 0 -18 7 -34
19 -43 17 -11 19 -18 10 -40 -6 -16 -6 -36 -1 -52 9 -26 8 -57 -3 -133 -4 -30
-2 -38 10 -38 9 0 15 6 13 14 -6 29 16 20 24 -9 4 -18 4 -31 -2 -33 -6 -2 -6
-10 0 -22 11 -21 3 -50 -14 -50 -7 0 -7 -3 2 -8 10 -7 9 -14 -2 -38 -25 -51
-29 -75 -13 -68 8 3 17 -2 20 -10 4 -9 2 -16 -4 -16 -6 0 -9 -6 -6 -14 3 -8 3
-17 -1 -21 -9 -9 -11 -65 -2 -65 14 0 19 -59 8 -91 -7 -19 -7 -34 -2 -36 30
-11 38 -27 45 -88 5 -38 4 -87 -1 -117 -8 -42 -7 -54 4 -60 17 -9 10 -89 -10
-130 -16 -32 -18 -41 -5 -33 5 3 13 0 17 -7 12 -19 12 -72 1 -80 -8 -5 -8 -13
0 -30 14 -29 35 -245 26 -278 -3 -14 -14 -35 -25 -46 -13 -14 -16 -24 -9 -29
6 -3 11 0 11 7 0 8 6 7 17 -5 15 -14 18 -40 20 -150 1 -72 2 -135 2 -139 1 -5
8 -8 16 -8 8 0 15 -5 15 -11 0 -5 -4 -7 -10 -4 -5 3 -10 -1 -10 -9 0 -9 4 -16
8 -16 9 0 5 -88 -8 -142 -5 -27 -4 -38 4 -38 8 0 11 -29 10 -92 0 -51 2 -97 5
-103 3 -5 7 -32 7 -60 3 -93 22 -259 31 -262 5 -2 8 -25 7 -51 -1 -26 2 -53 8
-59 10 -13 7 -55 -7 -103 -5 -14 -5 -22 0 -18 4 4 13 1 20 -5 21 -22 27 -49
40 -192 2 -22 5 -40 6 -40 1 0 3 -22 5 -50 5 -94 12 -138 25 -145 6 -5 9 -16
5 -25 -3 -10 1 -45 9 -79 8 -33 17 -79 18 -101 2 -22 8 -49 14 -60 14 -28 42
-157 53 -245 5 -41 18 -109 30 -150 12 -41 32 -116 45 -167 25 -97 36 -120
100 -198 22 -27 45 -56 50 -63 6 -7 42 -45 80 -85 105 -109 123 -135 151 -225
24 -77 31 -88 111 -172 111 -117 80 -119 -39 -3 -17 15 -18 15 -18 -1 0 -9 9
-34 20 -56 11 -22 20 -46 20 -55 0 -20 -29 -19 -51 1 -16 15 -17 13 -7 -26 13
-50 8 -57 -26 -35 -25 17 -26 16 -26 -2 0 -17 -7 -19 -47 -19 -38 1 -47 -2
-51 -19 -5 -16 -10 -10 -28 30 l-23 50 5 -65 c3 -36 9 -80 14 -98 8 -32 8 -33
-26 -36 -6 -1 -19 -7 -28 -15 -14 -12 -16 -10 -16 23 0 26 -5 39 -17 43 -10 4
-20 9 -23 12 -16 18 -53 32 -62 23 -6 -6 -17 -8 -25 -5 -21 8 -8 -32 24 -75
14 -18 22 -36 19 -39 -3 -4 -6 -1 -6 5 0 7 -11 12 -25 12 -20 0 -27 6 -31 28
-6 31 -44 64 -44 38 0 -7 7 -30 15 -50 8 -20 11 -36 6 -36 -12 0 -51 49 -51
65 0 6 -11 22 -25 35 l-25 23 0 -22 c0 -27 -29 -40 -42 -18 -5 10 -16 17 -24
17 -29 0 -59 116 -75 285 -7 72 -12 137 -12 145 1 29 34 265 43 305 20 86 13
137 -64 485 -14 63 -30 153 -36 200 -6 47 -16 89 -21 94 -5 6 -9 29 -9 52 0
69 -51 348 -67 366 -10 12 -11 18 -3 23 8 5 9 19 5 39 -4 17 -9 51 -12 76 -3
25 -9 48 -14 51 -5 3 -7 12 -4 20 3 8 -4 102 -15 210 -11 107 -22 239 -26 294
-3 55 -10 132 -15 170 -4 39 -11 129 -14 200 -3 72 -8 146 -10 165 -4 35 -15
205 -19 291 -1 24 -3 95 -4 157 -2 105 -3 112 -22 112 -13 0 -20 7 -20 20 0
23 10 26 28 8 9 -9 12 -5 12 20 0 26 -5 35 -25 42 -23 9 -24 12 -14 31 9 17
13 19 20 8 13 -21 22 -3 14 30 -4 18 -11 28 -17 25 -13 -8 -28 15 -21 33 3 7
11 13 19 13 8 0 14 10 14 25 0 16 -6 25 -15 25 -8 0 -15 9 -15 20 0 11 7 23
15 26 21 9 19 30 -6 48 -21 14 -21 16 -5 40 20 32 20 52 0 60 -15 6 -15 8 0
31 20 30 20 42 1 62 -14 14 -14 18 0 40 10 14 14 32 9 41 -4 9 -8 91 -10 182
-4 284 -27 700 -38 719 -3 4 -12 99 -21 211 -9 113 -18 207 -20 210 -2 3 -9
62 -15 130 -6 69 -15 141 -20 160 -5 19 -12 67 -15 105 -3 39 -8 88 -11 110
-8 76 -3 810 6 960 16 258 39 420 66 474 8 16 23 75 33 132 11 57 24 117 30
133 7 16 18 76 27 135 8 58 21 129 28 156 8 28 17 97 20 155 8 120 10 151 26
275 6 50 15 124 20 165 8 72 33 197 63 325 34 145 108 338 150 392 33 41 40
29 34 -56z m-72 -921 c10 -16 -5 -50 -21 -50 -15 0 -18 18 -8 44 7 18 20 21
29 6z m-48 -162 c-3 -8 -6 -5 -6 6 -1 11 2 17 5 13 3 -3 4 -12 1 -19z m-27
-188 c0 -5 -4 -10 -10 -10 -5 0 -10 5 -10 10 0 6 5 10 10 10 6 0 10 -4 10 -10z
m-15 -90 c3 -5 -1 -10 -9 -10 -9 0 -16 5 -16 10 0 6 4 10 9 10 6 0 13 -4 16
-10z m-14 -93 c-1 -12 -15 -9 -19 4 -3 6 1 10 8 8 6 -3 11 -8 11 -12z m-11
-92 c0 -8 -4 -15 -10 -15 -5 0 -10 7 -10 15 0 8 5 15 10 15 6 0 10 -7 10 -15z
m0 -93 c0 -13 -12 -22 -22 -16 -10 6 -1 24 13 24 5 0 9 -4 9 -8z m-12 -100 c2
-7 -3 -12 -12 -12 -9 0 -16 7 -16 16 0 17 22 14 28 -4z m-17 -95 c-1 -12 -15
-9 -19 4 -3 6 1 10 8 8 6 -3 11 -8 11 -12z m14867 -58 c-2 -6 -8 -10 -13 -10
-5 0 -11 4 -13 10 -2 6 4 11 13 11 9 0 15 -5 13 -11z m-14878 -39 c0 -11 -4
-20 -10 -20 -5 0 -10 9 -10 20 0 11 5 20 10 20 6 0 10 -9 10 -20z m14940 -35
c0 -8 -7 -15 -15 -15 -16 0 -20 12 -8 23 11 12 23 8 23 -8z m-14950 -69 c-14
-14 -24 0 -16 21 6 15 8 15 16 3 6 -9 5 -19 0 -24z m14940 -1 c0 -8 -6 -15
-14 -15 -17 0 -28 14 -19 24 12 12 33 6 33 -9z m-10 -75 c0 -5 -7 -10 -15 -10
-8 0 -15 5 -15 10 0 6 7 10 15 10 8 0 15 -4 15 -10z m-14935 -10 c3 -5 1 -10
-4 -10 -6 0 -11 5 -11 10 0 6 2 10 4 10 3 0 8 -4 11 -10z m14930 -81 c-8 -12
-35 -12 -35 0 0 11 22 20 33 14 4 -2 5 -9 2 -14z m-35 -69 c22 -6 23 -8 7 -15
-22 -9 -70 2 -62 15 7 11 19 11 55 0z m-30 -79 c0 -5 6 -8 14 -7 8 0 16 -3 18
-9 4 -14 -73 -18 -92 -5 -13 9 -13 11 0 20 19 12 60 13 60 1z m-20 -80 c0 -5
8 -8 17 -7 10 0 19 -6 21 -16 2 -13 -4 -16 -30 -14 -18 2 -43 4 -56 5 -30 1
-24 23 9 32 35 10 39 10 39 0z m-14883 -73 c-3 -8 -6 -5 -6 6 -1 11 2 17 5 13
3 -3 4 -12 1 -19z m14873 -39 c0 -21 -21 -25 -52 -8 l-21 12 23 12 c29 16 50
9 50 -16z m-14880 -49 c0 -5 -4 -10 -10 -10 -5 0 -10 5 -10 10 0 6 5 10 10 10
6 0 10 -4 10 -10z m14860 -38 c0 -14 -11 -21 -26 -15 -8 3 -11 9 -8 14 7 11
34 12 34 1z m-14873 -64 c-3 -8 -6 -5 -6 6 -1 11 2 17 5 13 3 -3 4 -12 1 -19z
m-11 -105 c-10 -10 -19 5 -10 18 6 11 8 11 12 0 2 -7 1 -15 -2 -18z m4 -84 c0
-5 -4 -9 -10 -9 -5 0 -10 7 -10 16 0 8 5 12 10 9 6 -3 10 -10 10 -16z m-19
-102 c-13 -13 -26 -3 -16 12 3 6 11 8 17 5 6 -4 6 -10 -1 -17z m14899 -498 c0
-21 -7 -23 -29 -10 -12 8 -12 12 -2 25 16 19 31 12 31 -15z m-5 -109 c-5 -8
-11 -8 -17 -2 -6 6 -7 16 -3 22 5 8 11 8 17 2 6 -6 7 -16 3 -22z m7 -85 c0 -5
-5 -11 -11 -13 -6 -2 -11 4 -11 13 0 9 5 15 11 13 6 -2 11 -8 11 -13z m13
-105 c-8 -13 -35 -1 -35 15 0 7 6 15 13 18 14 5 31 -19 22 -33z m9 -91 c-7
-12 -31 -11 -39 1 -4 6 -1 18 6 26 12 14 14 14 26 -2 7 -9 10 -21 7 -25z m4
-77 c3 -16 -2 -22 -16 -22 -27 0 -33 10 -21 32 13 24 33 19 37 -10z m1 -80
c13 -25 0 -42 -27 -35 -26 6 -26 7 -10 33 16 25 25 25 37 2z m9 -100 c4 -26
-22 -40 -43 -22 -11 9 -12 16 -2 31 16 25 41 20 45 -9z m1 -79 c6 -11 6 -24 0
-35 -8 -14 -14 -15 -39 -6 -35 12 -35 12 -13 38 21 25 39 26 52 3z m-1 -107
c6 -27 -11 -38 -33 -22 -17 12 -17 16 -6 30 17 20 35 16 39 -8z m-1 -110 c-4
-9 -11 -16 -17 -16 -17 0 -24 31 -9 41 18 11 34 -5 26 -25z m-7 -81 c0 -8 -7
-15 -15 -15 -16 0 -20 12 -8 23 11 12 23 8 23 -8z m-10 -105 c0 -5 -2 -10 -4
-10 -3 0 -8 5 -11 10 -3 6 -1 10 4 10 6 0 11 -4 11 -10z m-14937 -1184 c6 -15
-1 -26 -15 -26 -4 0 -8 9 -8 20 0 23 15 27 23 6z m-3 -101 c0 -8 -4 -15 -10
-15 -5 0 -10 7 -10 15 0 8 5 15 10 15 6 0 10 -7 10 -15z m3 -99 c4 -10 1 -13
-8 -9 -8 3 -12 9 -9 14 7 12 11 11 17 -5z m-4 -105 c-15 -5 -22 6 -14 19 6 9
10 9 16 -1 5 -8 4 -15 -2 -18z m11 -92 c0 -5 -4 -9 -10 -9 -5 0 -10 7 -10 16
0 8 5 12 10 9 6 -3 10 -10 10 -16z m0 -89 c0 -5 -2 -10 -4 -10 -3 0 -8 5 -11
10 -3 6 -1 10 4 10 6 0 11 -4 11 -10z m0 -90 c0 -5 -5 -10 -11 -10 -5 0 -7 5
-4 10 3 6 8 10 11 10 2 0 4 -4 4 -10z m10 -101 c0 -5 -4 -9 -10 -9 -5 0 -10 7
-10 16 0 8 5 12 10 9 6 -3 10 -10 10 -16z m0 -89 c0 -5 -4 -10 -10 -10 -5 0
-10 5 -10 10 0 6 5 10 10 10 6 0 10 -4 10 -10z m0 -95 c0 -8 -4 -15 -10 -15
-5 0 -10 7 -10 15 0 8 5 15 10 15 6 0 10 -7 10 -15z m10 -100 c0 -8 -7 -15
-15 -15 -8 0 -15 7 -15 15 0 8 7 15 15 15 8 0 15 -7 15 -15z m0 -96 c0 -5 -7
-9 -15 -9 -9 0 -12 6 -9 15 6 15 24 11 24 -6z m10 -100 c0 -5 -7 -9 -15 -9
-15 0 -20 12 -9 23 8 8 24 -1 24 -14z m-8 -101 c-9 -9 -12 -7 -12 12 0 19 3
21 12 12 9 -9 9 -15 0 -24z m8 -88 c0 -5 -4 -10 -10 -10 -5 0 -10 5 -10 10 0
6 5 10 10 10 6 0 10 -4 10 -10z m10 -96 c0 -8 -5 -12 -10 -9 -6 4 -8 11 -5 16
9 14 15 11 15 -7z m620 -4444 c0 -5 -2 -10 -4 -10 -3 0 -8 5 -11 10 -3 6 -1
10 4 10 6 0 11 -4 11 -10z m-10 -366 c0 -8 -5 -12 -10 -9 -6 4 -8 11 -5 16 9
14 15 11 15 -7z m-10 -370 c0 -8 -5 -12 -10 -9 -6 4 -8 11 -5 16 9 14 15 11
15 -7z m0 -89 c0 -8 -4 -15 -10 -15 -5 0 -10 7 -10 15 0 8 5 15 10 15 6 0 10
-7 10 -15z m0 -90 c0 -8 -4 -15 -9 -15 -13 0 -22 16 -14 24 11 11 23 6 23 -9z
m-10 -90 c0 -8 -4 -15 -10 -15 -5 0 -10 7 -10 15 0 8 5 15 10 15 6 0 10 -7 10
-15z m-183 -1511 c-3 -3 -12 -4 -19 -1 -8 3 -5 6 6 6 11 1 17 -2 13 -5z m-2
-164 c-3 -5 -14 -10 -23 -10 -15 0 -15 2 -2 10 20 13 33 13 25 0z m0 -90 c3
-5 -1 -10 -10 -10 -9 0 -13 5 -10 10 3 6 8 10 10 10 2 0 7 -4 10 -10z m0 -90
c-3 -5 -13 -10 -21 -10 -8 0 -14 5 -14 10 0 6 9 10 21 10 11 0 17 -4 14 -10z
m-65 -10 c0 -5 -5 -10 -11 -10 -5 0 -7 5 -4 10 3 6 8 10 11 10 2 0 4 -4 4 -10z
m70 -68 c0 -15 -11 -21 -27 -15 -12 5 -12 7 -1 14 17 11 28 11 28 1z m-66 -23
c-3 -5 -10 -7 -15 -3 -5 3 -7 10 -3 15 3 5 10 7 15 3 5 -3 7 -10 3 -15z m76
-68 c0 -13 -34 -23 -54 -15 -9 3 -16 1 -16 -5 0 -6 -5 -11 -11 -11 -6 0 -9 6
-7 12 7 20 88 37 88 19z m5 -92 c0 -9 -11 -14 -32 -14 -18 0 -33 -3 -33 -7 0
-5 -7 -8 -16 -8 -27 0 -10 23 27 36 40 15 54 13 54 -7z m5 -89 c0 -16 -7 -20
-35 -21 -19 -1 -41 -2 -47 -3 -27 -2 -12 29 17 35 54 12 65 10 65 -11z m13
-84 c8 -20 -19 -39 -45 -33 -12 4 -27 2 -34 -4 -8 -6 -15 -4 -24 6 -10 13 -7
17 21 30 44 18 75 19 82 1z m7 -95 c0 -29 -1 -30 -55 -30 -42 0 -55 4 -55 15
0 8 8 17 18 20 9 3 24 9 32 14 8 5 25 9 38 9 18 1 22 -4 22 -28z m4 -67 c11
-30 6 -54 -11 -54 -10 0 -34 -3 -54 -6 -56 -9 -59 18 -6 50 49 30 63 32 71 10z
m14 -118 c-5 -32 -118 -49 -118 -17 0 5 19 23 42 40 39 29 43 30 60 14 11 -9
18 -26 16 -37z m9 -82 c3 -8 2 -19 -3 -24 -15 -14 -91 -28 -105 -19 -20 12 1
42 29 44 12 1 25 5 29 8 12 13 44 7 50 -9z m16101 -79 c-3 -3 -9 2 -12 12 -6
14 -5 15 5 6 7 -7 10 -15 7 -18z m-16090 -22 c4 -14 -40 -36 -76 -38 -29 -1
-47 18 -30 33 29 23 99 26 106 5z m16112 -59 c0 -8 -5 -12 -10 -9 -6 4 -8 11
-5 16 9 14 15 11 15 -7z m-16114 -34 c8 0 14 -5 14 -11 0 -6 -6 -9 -14 -6 -8
3 -17 -1 -20 -9 -3 -8 -19 -14 -41 -14 -29 0 -36 3 -33 18 2 9 11 16 20 14 9
-1 20 2 23 8 4 6 14 9 22 6 8 -3 21 -6 29 -6z m16131 -62 c-3 -8 -6 -5 -6 6
-1 11 2 17 5 13 3 -3 4 -12 1 -19z m-16142 -38 c4 -6 2 -17 -4 -24 -14 -16
-71 -8 -71 10 0 17 16 18 26 3 5 -8 10 -6 16 5 10 18 24 21 33 6z m16166 -43
c-1 -12 -15 -9 -19 4 -3 6 1 10 8 8 6 -3 11 -8 11 -12z m-16161 -61 c0 -16
-18 -31 -27 -22 -8 8 5 36 17 36 5 0 10 -6 10 -14z m-50 -11 c0 -8 -4 -15 -10
-15 -5 0 -10 7 -10 15 0 8 5 15 10 15 6 0 10 -7 10 -15z m16240 -21 c0 -9 -5
-14 -12 -12 -18 6 -21 28 -4 28 9 0 16 -7 16 -16z m-16180 -69 c0 -8 -4 -15
-10 -15 -5 0 -10 7 -10 15 0 8 5 15 10 15 6 0 10 -7 10 -15z m16195 -14 c3 -5
1 -12 -5 -16 -5 -3 -10 1 -10 9 0 18 6 21 15 7z m-16185 -87 c0 -8 -5 -12 -10
-9 -6 4 -8 11 -5 16 9 14 15 11 15 -7z m-50 -4 c0 -5 -4 -10 -10 -10 -5 0 -10
5 -10 10 0 6 5 10 10 10 6 0 10 -4 10 -10z m15 -90 c3 -5 1 -10 -4 -10 -6 0
-11 5 -11 10 0 6 2 10 4 10 3 0 8 -4 11 -10z m95 -180 c0 -5 -5 -10 -11 -10
-5 0 -7 5 -4 10 3 6 8 10 11 10 2 0 4 -4 4 -10z m10 -100 c0 -5 -4 -10 -10
-10 -5 0 -10 5 -10 10 0 6 5 10 10 10 6 0 10 -4 10 -10z m16215 -220 c-5 -8
-11 -8 -17 -2 -6 6 -7 16 -3 22 5 8 11 8 17 2 6 -6 7 -16 3 -22z m15 -86 c0
-17 -22 -14 -28 4 -2 7 3 12 12 12 9 0 16 -7 16 -16z"/>
<path d="M26995 29280 c-3 -5 -1 -10 4 -10 6 0 11 5 11 10 0 6 -2 10 -4 10 -3
0 -8 -4 -11 -10z"/>
<path d="M26937 29143 c3 -6 11 -9 19 -6 20 7 17 19 -5 19 -11 0 -17 -6 -14
-13z"/>
<path d="M26815 29130 c3 -5 8 -10 11 -10 2 0 4 5 4 10 0 6 -5 10 -11 10 -5 0
-7 -4 -4 -10z"/>
<path d="M27740 29131 c0 -6 4 -13 10 -16 6 -3 7 1 4 9 -7 18 -14 21 -14 7z"/>
<path d="M29230 28870 c0 -5 -7 -10 -15 -10 -8 0 -15 -4 -15 -10 0 -6 10 -5
25 2 25 11 34 28 15 28 -5 0 -10 -4 -10 -10z"/>
<path d="M31460 27270 c0 -5 7 -10 15 -10 8 0 15 5 15 10 0 6 -7 10 -15 10 -8
0 -15 -4 -15 -10z"/>
<path d="M31570 27129 c0 -5 5 -7 10 -4 6 3 10 8 10 11 0 2 -4 4 -10 4 -5 0
-10 -5 -10 -11z"/>
<path d="M31530 27076 c0 -2 9 -6 20 -9 11 -3 20 -1 20 4 0 5 -9 9 -20 9 -11
0 -20 -2 -20 -4z"/>
<path d="M31546 27015 c4 -8 8 -15 10 -15 2 0 4 7 4 15 0 8 -4 15 -10 15 -5 0
-7 -7 -4 -15z"/>
<path d="M31850 27016 c0 -9 5 -16 10 -16 6 0 10 4 10 9 0 6 -4 13 -10 16 -5
3 -10 -1 -10 -9z"/>
<path d="M31600 27010 c0 -5 5 -10 11 -10 5 0 7 5 4 10 -3 6 -8 10 -11 10 -2
0 -4 -4 -4 -10z"/>
<path d="M31774 26973 c5 -35 3 -44 -13 -52 -10 -6 -20 -8 -23 -6 -3 3 -5 -2
-5 -10 0 -8 4 -12 9 -9 4 3 5 -1 2 -9 -6 -16 -54 -30 -54 -16 0 5 -4 9 -8 9
-12 0 -8 -51 7 -79 11 -19 11 -25 0 -32 -11 -7 -10 -9 3 -9 9 0 18 5 20 11 2
6 14 8 31 4 26 -7 26 -8 10 -20 -10 -8 -15 -16 -12 -19 10 -10 39 5 39 19 0
16 33 25 51 14 7 -4 21 -3 31 2 10 6 28 7 40 3 14 -4 18 -2 14 5 -4 6 -1 11 8
11 8 0 17 4 20 8 3 5 -11 8 -30 7 -19 0 -33 3 -31 8 1 5 6 8 10 8 14 -2 35 24
30 36 -3 7 -15 13 -26 12 -31 0 -78 8 -85 15 -3 3 1 6 8 6 9 0 7 7 -6 21 -19
21 -19 21 3 18 12 -2 23 1 24 6 1 6 5 20 10 32 9 23 -2 25 -38 5 -26 -15 -36
-15 -28 -2 3 5 1 18 -5 27 -9 14 -10 9 -6 -24z m-54 -133 c0 -5 -4 -10 -10
-10 -5 0 -10 5 -10 10 0 6 5 10 10 10 6 0 10 -4 10 -10z"/>
<path d="M31343 26943 c4 -26 17 -44 28 -38 15 10 10 29 -11 43 -17 10 -20 10
-17 -5z"/>
<path d="M31275 26941 c-3 -5 -1 -12 5 -16 5 -3 10 1 10 9 0 18 -6 21 -15 7z"/>
<path d="M31315 26940 c-3 -5 -1 -10 4 -10 6 0 11 5 11 10 0 6 -2 10 -4 10 -3
0 -8 -4 -11 -10z"/>
<path d="M31730 26940 c-8 -5 -10 -10 -5 -10 6 0 17 5 25 10 8 5 11 10 5 10
-5 0 -17 -5 -25 -10z"/>
<path d="M31435 26900 c-3 -5 -1 -10 4 -10 6 0 11 5 11 10 0 6 -2 10 -4 10 -3
0 -8 -4 -11 -10z"/>
<path d="M32728 26885 c-3 -14 -1 -25 3 -25 5 0 9 5 9 10 0 6 7 10 15 10 8 0
15 5 15 11 0 5 -4 7 -10 4 -5 -3 -10 -1 -10 4 0 22 -18 10 -22 -14z"/>
<path d="M31352 26854 c-1 -15 2 -22 8 -19 12 7 13 32 2 39 -4 2 -9 -7 -10
-20z"/>
<path d="M31945 26869 c-4 -6 -5 -12 -2 -15 2 -3 7 2 10 11 7 17 1 20 -8 4z"/>
<path d="M31240 26855 c0 -8 4 -15 10 -15 5 0 7 7 4 15 -4 8 -8 15 -10 15 -2
0 -4 -7 -4 -15z"/>
<path d="M31310 26857 c10 -14 11 -20 2 -26 -7 -4 -10 -15 -6 -25 7 -18 25
-17 32 2 2 8 -3 10 -15 6 -17 -5 -17 -5 -1 9 17 13 17 15 -4 33 -21 17 -21 17
-8 1z"/>
<path d="M32537 26857 c-3 -8 1 -14 8 -14 7 0 11 6 8 14 -3 7 -6 13 -8 13 -2
0 -5 -6 -8 -13z"/>
<path d="M32452 26828 c3 -7 -5 -20 -16 -30 -19 -16 -19 -17 -3 -18 10 0 16 4
13 9 -3 5 1 11 9 15 17 6 21 36 4 36 -6 0 -9 -6 -7 -12z"/>
<path d="M31495 26810 c3 -5 8 -10 11 -10 2 0 4 5 4 10 0 6 -5 10 -11 10 -5 0
-7 -4 -4 -10z"/>
<path d="M31360 26800 c0 -5 5 -10 11 -10 5 0 7 5 4 10 -3 6 -8 10 -11 10 -2
0 -4 -4 -4 -10z"/>
<path d="M32296 26801 c-3 -5 3 -11 15 -14 16 -4 18 -3 8 9 -13 16 -16 17 -23
5z"/>
<path d="M32485 26800 c-16 -7 -17 -9 -3 -9 9 -1 20 4 23 9 7 11 7 11 -20 0z"/>
<path d="M32023 26793 c9 -2 23 -2 30 0 6 3 -1 5 -18 5 -16 0 -22 -2 -12 -5z"/>
<path d="M32360 26792 c0 -5 7 -9 15 -9 8 0 12 4 9 9 -3 4 -9 8 -15 8 -5 0 -9
-4 -9 -8z"/>
<path d="M31515 26769 c-4 -6 -5 -12 -2 -15 2 -3 7 2 10 11 7 17 1 20 -8 4z"/>
<path d="M31553 26763 c-10 -4 -9 -9 3 -20 17 -18 30 -11 17 10 -4 8 -14 12
-20 10z"/>
<path d="M32518 26763 c7 -3 16 -2 19 1 4 3 -2 6 -13 5 -11 0 -14 -3 -6 -6z"/>
<path d="M31596 26745 c4 -8 11 -15 16 -15 6 0 5 6 -2 15 -7 8 -14 15 -16 15
-2 0 -1 -7 2 -15z"/>
<path d="M31846 26737 c3 -10 9 -15 12 -12 3 3 0 11 -7 18 -10 9 -11 8 -5 -6z"/>
<path d="M31452 26690 c-17 -28 -15 -39 8 -33 11 3 17 10 14 17 -3 6 1 3 9 -7
8 -9 21 -16 28 -14 8 2 11 2 7 0 -16 -9 -7 -23 15 -23 18 0 19 -2 7 -10 -8 -5
-10 -10 -4 -10 18 0 24 12 13 26 -8 9 -6 11 8 8 29 -7 47 10 34 32 -10 19 -10
19 -11 0 0 -15 -3 -16 -15 -6 -8 7 -15 18 -15 24 0 6 -19 12 -43 13 -33 2 -45
-1 -55 -17z"/>
<path d="M31765 26700 c-3 -6 1 -7 9 -4 18 7 21 14 7 14 -6 0 -13 -4 -16 -10z"/>
<path d="M32606 26698 c3 -5 10 -6 15 -3 13 9 11 12 -6 12 -8 0 -12 -4 -9 -9z"/>
<path d="M32216 26685 c-3 -8 -1 -15 4 -15 6 0 10 7 10 15 0 8 -2 15 -4 15 -2
0 -6 -7 -10 -15z"/>
<path d="M32660 26690 c0 -6 -10 -15 -22 -20 -22 -8 -22 -9 5 -9 16 -1 26 3
22 9 -3 6 1 10 10 10 9 0 13 5 10 10 -8 13 -25 13 -25 0z"/>
<path d="M32388 26671 c-10 -10 -15 -20 -12 -24 5 -5 44 28 44 38 0 10 -15 3
-32 -14z"/>
<path d="M32570 26661 c0 -6 5 -13 10 -16 6 -3 10 1 10 9 0 9 -4 16 -10 16 -5
0 -10 -4 -10 -9z"/>
<path d="M32311 26640 c-13 -11 -29 -20 -37 -20 -7 0 -15 -4 -19 -9 -3 -6 3
-9 12 -9 10 0 23 0 28 -2 30 -7 46 1 40 20 -4 11 -2 20 4 20 6 0 11 5 11 10 0
15 -12 12 -39 -10z"/>
<path d="M32421 26638 c-1 -20 24 -24 35 -6 5 7 2 9 -9 5 -9 -3 -18 -1 -21 6
-2 7 -5 4 -5 -5z"/>
<path d="M31420 26636 c0 -2 7 -7 16 -10 8 -3 12 -2 9 4 -6 10 -25 14 -25 6z"/>
<path d="M32470 26619 c0 -5 5 -7 10 -4 6 3 10 8 10 11 0 2 -4 4 -10 4 -5 0
-10 -5 -10 -11z"/>
<path d="M31455 26600 c-4 -6 -2 -17 4 -23 15 -15 25 -2 13 19 -7 12 -11 13
-17 4z"/>
<path d="M32428 26597 l-27 -11 22 -11 c12 -6 21 -18 19 -26 -2 -8 0 -11 4 -7
6 7 17 70 11 67 -1 -1 -14 -6 -29 -12z"/>
<path d="M31606 26558 c3 -5 10 -6 15 -3 13 9 11 12 -6 12 -8 0 -12 -4 -9 -9z"/>
<path d="M32630 26539 c0 -5 5 -7 10 -4 6 3 10 8 10 11 0 2 -4 4 -10 4 -5 0
-10 -5 -10 -11z"/>
<path d="M32605 26530 c3 -5 8 -10 11 -10 2 0 4 5 4 10 0 6 -5 10 -11 10 -5 0
-7 -4 -4 -10z"/>
<path d="M32451 26467 c-15 -19 -2 -29 15 -12 8 7 14 16 14 19 0 11 -17 6 -29
-7z"/>
<path d="M32497 26414 c-4 -4 -7 -14 -7 -23 0 -11 3 -12 11 -4 6 6 10 16 7 23
-2 6 -7 8 -11 4z"/>
<path d="M32860 26370 c-9 -6 -10 -10 -3 -10 6 0 15 5 18 10 8 12 4 12 -15 0z"/>
<path d="M33116 26334 c-5 -13 -9 -14 -21 -4 -12 10 -15 10 -15 -3 0 -15 27
-32 43 -28 5 1 7 -4 4 -11 -2 -7 -10 -12 -16 -10 -16 3 -14 -5 12 -43 13 -19
27 -32 30 -28 11 10 8 25 -3 18 -6 -3 -10 5 -10 19 0 14 7 29 17 34 15 9 14
11 -4 21 -15 7 -20 17 -16 31 6 24 -12 27 -21 4z"/>
<path d="M32516 26315 c4 -8 11 -15 16 -15 6 0 5 6 -2 15 -7 8 -14 15 -16 15
-2 0 -1 -7 2 -15z"/>
<path d="M32280 26309 c0 -5 5 -7 10 -4 6 3 10 8 10 11 0 2 -4 4 -10 4 -5 0
-10 -5 -10 -11z"/>
<path d="M32631 26252 c-6 -11 -8 -27 -5 -35 6 -18 -9 -52 -38 -84 -20 -22
-20 -22 1 -16 11 3 23 15 27 27 4 11 13 25 19 31 7 5 16 20 20 32 5 18 3 22
-9 17 -19 -7 -21 7 -4 24 6 6 9 14 6 18 -4 3 -11 -3 -17 -14z"/>
<path d="M32755 26261 c-28 -6 -28 -7 -8 -13 13 -4 27 0 34 8 6 8 10 13 8 13
-2 -1 -17 -4 -34 -8z"/>
<path d="M32863 26263 c-20 -7 -15 -22 6 -20 11 0 17 6 14 14 -3 7 -6 13 -7
12 0 0 -7 -3 -13 -6z"/>
<path d="M33170 26260 c0 -5 5 -10 10 -10 6 0 10 5 10 10 0 6 -4 10 -10 10 -5
0 -10 -4 -10 -10z"/>
<path d="M32245 26240 c3 -5 14 -10 23 -10 15 0 15 2 2 10 -20 13 -33 13 -25
0z"/>
<path d="M32926 26218 c-13 -29 -14 -30 -20 -10 -9 28 -34 18 -29 -12 5 -23
20 -28 61 -20 15 3 20 9 15 17 -4 7 -6 22 -4 35 4 32 -8 27 -23 -10z"/>
<path d="M32823 26225 c-8 -9 -9 -16 -3 -20 6 -3 13 1 16 10 9 21 2 26 -13 10z"/>
<path d="M32660 26181 c0 -5 5 -13 10 -16 6 -3 10 -2 10 4 0 5 -4 13 -10 16
-5 3 -10 2 -10 -4z"/>
<path d="M32630 26152 c0 -5 11 -17 24 -26 23 -15 25 -15 23 4 -1 11 -4 20 -8
20 -4 0 -14 3 -23 6 -9 3 -16 2 -16 -4z"/>
<path d="M31995 26094 c0 -16 6 -24 18 -24 9 0 17 6 17 13 0 7 -8 17 -17 23
-15 9 -18 7 -18 -12z"/>
<path d="M31955 26101 c-3 -5 -2 -12 3 -15 5 -3 9 1 9 9 0 17 -3 19 -12 6z"/>
<path d="M32290 26085 c0 -8 5 -15 10 -15 6 0 10 7 10 15 0 8 -4 15 -10 15 -5
0 -10 -7 -10 -15z"/>
<path d="M31380 25965 c0 -8 2 -15 4 -15 2 0 6 7 10 15 3 8 1 15 -4 15 -6 0
-10 -7 -10 -15z"/>
<path d="M31938 25973 c7 -3 16 -2 19 1 4 3 -2 6 -13 5 -11 0 -14 -3 -6 -6z"/>
<path d="M31355 25940 c3 -5 11 -10 16 -10 6 0 7 5 4 10 -3 6 -11 10 -16 10
-6 0 -7 -4 -4 -10z"/>
<path d="M31843 25935 c5 -14 29 -13 34 2 3 7 -4 11 -16 10 -12 -1 -20 -6 -18
-12z"/>
<path d="M31301 25304 c0 -11 3 -14 6 -6 3 7 2 16 -1 19 -3 4 -6 -2 -5 -13z"/>
<path d="M31351 25311 c-10 -6 -10 -10 -1 -16 13 -8 24 -1 19 14 -3 6 -10 7
-18 2z"/>
<path d="M32655 24571 c-3 -5 -1 -12 5 -16 5 -3 10 1 10 9 0 18 -6 21 -15 7z"/>
<path d="M32630 24539 c0 -5 5 -7 10 -4 6 3 10 8 10 11 0 2 -4 4 -10 4 -5 0
-10 -5 -10 -11z"/>
<path d="M32641 24230 c1 -42 1 -43 9 -16 6 17 5 36 0 45 -7 11 -9 3 -9 -29z"/>
<path d="M32392 24109 c2 -7 10 -15 17 -17 8 -3 12 1 9 9 -2 7 -10 15 -17 17
-8 3 -12 -1 -9 -9z"/>
<path d="M32622 24085 c-12 -7 -26 -16 -30 -20 -4 -5 -1 -5 6 -1 7 4 19 3 27
-4 10 -9 15 -6 20 10 9 27 5 29 -23 15z"/>
<path d="M32560 24071 c0 -6 4 -13 10 -16 6 -3 7 1 4 9 -7 18 -14 21 -14 7z"/>
<path d="M32430 24060 c19 -13 30 -13 30 0 0 6 -10 10 -22 10 -19 0 -20 -2 -8
-10z"/>
<path d="M32476 24063 c-13 -13 -5 -25 9 -13 13 11 18 10 30 -6 8 -10 15 -23
15 -27 0 -5 4 -6 9 -3 16 10 -11 52 -34 54 -12 1 -25 -1 -29 -5z"/>
<path d="M32427 24033 c-4 -3 -7 -11 -7 -17 0 -6 5 -5 12 2 6 6 9 14 7 17 -3
3 -9 2 -12 -2z"/>
<path d="M32486 24032 c-3 -5 1 -9 9 -9 8 0 12 4 9 9 -3 4 -7 8 -9 8 -2 0 -6
-4 -9 -8z"/>
<path d="M32954 23992 c3 -5 0 -13 -6 -15 -9 -4 -10 -6 -1 -6 17 -1 25 16 12
25 -7 4 -9 3 -5 -4z"/>
<path d="M32475 23910 c3 -5 8 -10 11 -10 2 0 4 5 4 10 0 6 -5 10 -11 10 -5 0
-7 -4 -4 -10z"/>
<path d="M32635 23880 c-3 -5 1 -10 10 -10 9 0 13 5 10 10 -3 6 -8 10 -10 10
-2 0 -7 -4 -10 -10z"/>
<path d="M32586 23872 c-2 -4 -1 -14 5 -22 7 -12 9 -10 9 8 0 23 -5 28 -14 14z"/>
<path d="M32660 23796 c0 -2 7 -7 16 -10 8 -3 12 -2 9 4 -6 10 -25 14 -25 6z"/>
<path d="M32980 23726 c0 -9 5 -16 10 -16 6 0 10 4 10 9 0 6 -4 13 -10 16 -5
3 -10 -1 -10 -9z"/>
<path d="M32697 23589 c4 -13 8 -18 11 -10 2 7 -1 18 -6 23 -8 8 -9 4 -5 -13z"/>
<path d="M32710 23541 c0 -6 5 -13 10 -16 6 -3 10 1 10 9 0 9 -4 16 -10 16 -5
0 -10 -4 -10 -9z"/>
<path d="M32945 23540 c3 -5 8 -10 11 -10 2 0 4 5 4 10 0 6 -5 10 -11 10 -5 0
-7 -4 -4 -10z"/>
<path d="M32920 23515 c0 -8 7 -15 15 -15 9 0 12 6 9 15 -4 8 -10 15 -15 15
-5 0 -9 -7 -9 -15z"/>
<path d="M32847 23478 c-7 -4 -21 -5 -32 -2 -15 4 -16 3 -6 -4 7 -5 31 -7 52
-5 26 4 39 2 39 -6 0 -8 6 -8 20 1 11 7 20 16 20 20 0 9 -77 6 -93 -4z"/>
<path d="M32321 24414 c0 -11 3 -14 6 -6 3 7 2 16 -1 19 -3 4 -6 -2 -5 -13z"/>
<path d="M32215 24353 c-4 -11 0 -11 18 -2 31 16 32 18 8 16 -11 -1 -23 -7
-26 -14z"/>
<path d="M32310 24360 c0 -5 5 -10 10 -10 6 0 10 5 10 10 0 6 -4 10 -10 10 -5
0 -10 -4 -10 -10z"/>
<path d="M32256 24322 c-3 -6 -1 -14 5 -17 15 -10 25 3 12 16 -7 7 -13 7 -17
1z"/>
<path d="M30873 24290 c-29 -12 -30 -24 -2 -15 14 5 19 3 15 -3 -10 -17 36
-27 48 -10 6 8 17 13 25 10 9 -3 11 0 6 8 -4 6 -16 10 -26 7 -10 -3 -22 -1
-25 4 -6 11 -12 11 -41 -1z"/>
<path d="M31660 24250 c0 -5 5 -10 10 -10 6 0 10 5 10 10 0 6 -4 10 -10 10 -5
0 -10 -4 -10 -10z"/>
<path d="M31712 24220 c-12 -10 -19 -21 -14 -23 4 -3 18 5 31 19 27 28 16 32
-17 4z"/>
<path d="M31515 24180 c-3 -5 -1 -10 4 -10 6 0 11 5 11 10 0 6 -2 10 -4 10 -3
0 -8 -4 -11 -10z"/>
<path d="M32087 24144 c-7 -8 12 -28 36 -37 21 -8 23 9 3 29 -16 15 -29 18
-39 8z"/>
<path d="M31700 23940 c-9 -6 -10 -10 -3 -10 6 0 15 5 18 10 8 12 4 12 -15 0z"/>
<path d="M30620 23910 c0 -6 12 -15 26 -20 37 -15 40 -12 11 10 -28 22 -37 25
-37 10z"/>
<path d="M31798 23808 c5 -5 16 -8 23 -6 8 3 3 7 -10 11 -17 4 -21 3 -13 -5z"/>
<path d="M31570 23719 c0 -5 5 -7 10 -4 6 3 10 8 10 11 0 2 -4 4 -10 4 -5 0
-10 -5 -10 -11z"/>
<path d="M31431 23692 c-13 -2 -31 -11 -40 -20 -13 -13 -14 -15 -1 -10 48 18
62 20 55 8 -6 -9 -3 -9 14 -1 11 7 21 14 21 17 0 3 -4 3 -9 0 -5 -4 -11 -3
-13 1 -1 5 -14 6 -27 5z"/>
<path d="M30720 23660 c0 -5 5 -10 10 -10 6 0 10 5 10 10 0 6 -4 10 -10 10 -5
0 -10 -4 -10 -10z"/>
<path d="M31430 23639 c0 -5 5 -7 10 -4 6 3 10 8 10 11 0 2 -4 4 -10 4 -5 0
-10 -5 -10 -11z"/>
<path d="M30676 23586 c3 -9 11 -16 16 -16 13 0 5 23 -10 28 -7 2 -10 -2 -6
-12z"/>
<path d="M30718 23563 c7 -3 16 -2 19 1 4 3 -2 6 -13 5 -11 0 -14 -3 -6 -6z"/>
<path d="M30920 23540 c-13 -8 -12 -10 3 -10 9 0 17 5 17 10 0 12 -1 12 -20 0z"/>
<path d="M30787 23513 c-10 -9 -9 -23 1 -23 5 0 9 7 9 15 0 17 -1 18 -10 8z"/>
<path d="M30833 23423 c-15 -5 -17 -23 -4 -23 5 0 11 7 15 15 3 8 4 15 3 14
-1 0 -8 -3 -14 -6z"/>
<path d="M34314 24059 c-3 -6 -4 -13 -1 -16 7 -7 47 6 47 16 0 11 -39 11 -46
0z"/>
<path d="M34240 24020 c0 -5 5 -10 10 -10 6 0 10 5 10 10 0 6 -4 10 -10 10 -5
0 -10 -4 -10 -10z"/>
<path d="M34285 24020 c-3 -5 3 -10 15 -10 12 0 18 5 15 10 -3 6 -10 10 -15
10 -5 0 -12 -4 -15 -10z"/>
<path d="M34367 24013 c-4 -3 -7 -11 -7 -17 0 -6 5 -5 12 2 6 6 9 14 7 17 -3
3 -9 2 -12 -2z"/>
<path d="M34420 23976 c0 -2 7 -7 16 -10 8 -3 12 -2 9 4 -6 10 -25 14 -25 6z"/>
<path d="M34340 23936 c0 -2 7 -7 16 -10 8 -3 12 -2 9 4 -6 10 -25 14 -25 6z"/>
<path d="M34320 23909 c0 -5 5 -7 10 -4 6 3 10 8 10 11 0 2 -4 4 -10 4 -5 0
-10 -5 -10 -11z"/>
<path d="M34320 23840 c0 -6 7 -10 15 -10 8 0 15 2 15 4 0 2 -7 6 -15 10 -8 3
-15 1 -15 -4z"/>
<path d="M32022 20910 c7 -10 14 -18 15 -16 6 6 -9 36 -18 36 -5 0 -4 -9 3
-20z"/>
<path d="M32522 20820 c-7 -11 -8 -20 -3 -20 6 0 13 5 16 10 4 6 12 7 18 3 7
-4 6 0 -2 10 -16 21 -14 21 -29 -3z"/>
<path d="M32260 20822 c0 -4 9 -13 20 -20 19 -12 20 -11 8 8 -13 20 -28 27
-28 12z"/>
<path d="M31905 20790 c-3 -5 -1 -10 4 -10 6 0 11 5 11 10 0 6 -2 10 -4 10 -3
0 -8 -4 -11 -10z"/>
<path d="M32560 20770 c0 -5 5 -10 10 -10 6 0 10 5 10 10 0 6 -4 10 -10 10 -5
0 -10 -4 -10 -10z"/>
<path d="M32762 20769 c-27 -10 -24 -35 4 -31 17 2 16 0 -5 -18 -23 -20 -23
-20 -2 -20 12 0 21 5 21 11 0 5 5 7 10 4 6 -3 10 -2 10 4 0 5 -5 13 -10 16 -6
4 -8 15 -5 26 4 10 5 19 3 18 -2 0 -14 -4 -26 -10z"/>
<path d="M32690 20755 c0 -8 -8 -18 -17 -24 -15 -8 -13 -9 11 -7 36 4 55 31
26 39 -13 3 -20 0 -20 -8z"/>
<path d="M32475 20750 c3 -5 8 -10 11 -10 2 0 4 5 4 10 0 6 -5 10 -11 10 -5 0
-7 -4 -4 -10z"/>
<path d="M31960 20729 c0 -5 5 -7 10 -4 6 3 10 8 10 11 0 2 -4 4 -10 4 -5 0
-10 -5 -10 -11z"/>
<path d="M32680 20681 c0 -17 22 -24 31 -10 5 8 9 9 9 3 0 -21 26 -23 27 -3 1
15 -5 19 -33 19 -19 0 -34 -4 -34 -9z"/>
<path d="M32015 20629 c4 -6 9 -8 13 -5 3 3 11 -2 18 -12 9 -11 13 -13 14 -4
0 7 4 10 10 7 5 -3 18 -1 27 5 15 8 12 10 -14 6 -18 -2 -35 0 -39 5 -3 5 -12
9 -20 9 -8 0 -12 -5 -9 -11z"/>
<path d="M32228 20623 c-14 -3 -35 -33 -23 -33 15 0 55 21 55 30 0 10 -3 11
-32 3z"/>
<path d="M32296 20562 c-3 -5 1 -9 9 -9 8 0 15 4 15 9 0 4 -4 8 -9 8 -6 0 -12
-4 -15 -8z"/>
<path d="M32162 20498 c3 -7 13 -15 22 -16 12 -3 17 1 14 10 -3 7 -13 15 -22
16 -12 3 -17 -1 -14 -10z"/>
<path d="M26668 7750 c16 -37 42 -59 28 -24 -3 9 -9 27 -12 40 -3 13 -12 24
-19 24 -11 0 -10 -9 3 -40z"/>
<path d="M26568 7703 c5 -10 12 -35 16 -55 4 -21 12 -38 17 -38 7 0 8 12 4 33
-11 50 -24 77 -35 77 -7 0 -8 -6 -2 -17z"/>
<path d="M26221 7614 c0 -11 3 -14 6 -6 3 7 2 16 -1 19 -3 4 -6 -2 -5 -13z"/>
<path d="M26780 7549 c0 -17 27 -45 35 -37 3 3 -3 16 -14 29 -16 19 -20 20
-21 8z"/>
<path d="M26231 7524 c0 -11 3 -14 6 -6 3 7 2 16 -1 19 -3 4 -6 -2 -5 -13z"/>
<path d="M26558 7273 c5 -21 7 -23 10 -9 2 10 0 22 -6 28 -6 6 -7 0 -4 -19z"/>
</g>
</svg>
